<svg width="24" height="24" viewBox="0 0 24 24" fill="none" xmlns="http://www.w3.org/2000/svg">
<path d="M18.5824 13.6894C18.5824 13.6956 18.5824 13.6956 18.5762 13.7024C18.5797 13.6989 18.5819 13.6943 18.5824 13.6894Z" fill="#2B4655"/>
<path d="M13.1529 13.9475C13.3063 15.0869 13.6863 15.9049 14.3308 16.5155V16.5344C14.3358 16.6776 14.3276 16.8209 14.3064 16.9625C14.2634 17.145 14.1958 17.2332 14.0426 17.2958C13.8154 17.3841 13.5882 17.4783 13.3737 17.5856C13.373 17.5847 13.372 17.584 13.371 17.5835C13.3699 17.583 13.3688 17.5828 13.3676 17.5828C13.3665 17.5828 13.3653 17.583 13.3643 17.5835C13.3632 17.584 13.3623 17.5847 13.3615 17.5856C13.0774 17.6312 12.7902 17.6544 12.5026 17.6547C10.9768 17.6536 9.51379 17.0312 8.43485 15.9242C7.3559 14.8172 6.74923 13.3162 6.74805 11.7506C6.74914 10.185 7.35578 8.68387 8.43473 7.57681C9.51369 6.46975 10.9768 5.84729 12.5026 5.84613C15.6743 5.84613 18.2572 8.49633 18.2572 11.7505V11.763C17.926 11.1084 17.3676 10.6678 16.5949 10.4728C16.1777 10.372 15.7663 10.3911 15.4903 10.4096C14.4414 10.4979 13.5885 11.1967 13.2757 12.2413C13.111 12.7935 13.0691 13.3765 13.1529 13.9475Z" fill="white"/>
<path d="M20.4057 19.115C20.2744 18.9237 20.1197 18.7504 19.9455 18.5993C19.8522 18.5134 19.7538 18.4335 19.6508 18.3602C19.6508 18.3536 19.645 18.3536 19.645 18.3471C19.6108 18.3263 19.578 18.3032 19.5468 18.2779C19.4671 18.2278 19.387 18.1712 19.3073 18.1145C19.1295 18.0011 18.9453 17.8877 18.743 17.7807C18.3858 17.591 18.017 17.4249 17.6391 17.2834C17.5843 17.2626 17.5353 17.228 17.4967 17.183C17.4581 17.1379 17.4309 17.0837 17.4177 17.0253C17.3923 16.9161 17.38 16.8042 17.3809 16.692V16.6539C17.3776 16.612 17.3776 16.57 17.3809 16.5281C17.3923 16.4982 17.4114 16.4721 17.4362 16.4525C17.6692 16.2766 17.8226 16.031 17.9452 15.817C18.3265 15.1779 18.544 14.4504 18.5776 13.702C18.5809 13.6986 18.583 13.6942 18.5834 13.6894C18.597 13.4205 18.5888 13.1509 18.559 12.8834C18.5237 12.4968 18.422 12.1198 18.2586 11.7696V11.7631C17.9274 11.1084 17.3689 10.6678 16.5963 10.4729C16.179 10.3721 15.7677 10.3912 15.4916 10.4097C14.4428 10.4979 13.5899 11.1967 13.2771 12.2413C13.1125 12.7935 13.0706 13.3766 13.1544 13.9476C13.3078 15.0862 13.6879 15.905 14.3323 16.5156V16.5345C14.3373 16.6776 14.3292 16.821 14.3079 16.9626C14.2649 17.145 14.1974 17.2333 14.0441 17.2959C13.8169 17.3841 13.5897 17.4784 13.3753 17.5856C13.3745 17.5847 13.3736 17.584 13.3725 17.5835C13.3715 17.5831 13.3703 17.5828 13.3692 17.5828C13.368 17.5828 13.3669 17.5831 13.3658 17.5835C13.3648 17.584 13.3639 17.5847 13.3631 17.5856C12.9698 17.7693 12.5921 17.9862 12.2337 18.234C12.2139 18.2468 12.1954 18.2616 12.1785 18.2781C12.1785 18.2781 12.1726 18.2721 12.1726 18.2781C11.8538 18.4815 11.5765 18.7466 11.3562 19.0586C11.068 19.4491 10.9576 19.8646 11.025 20.2671C11.0366 20.3224 11.051 20.3771 11.068 20.431C11.1726 20.7642 11.4056 21.0665 11.7491 21.2872C11.8588 21.3625 11.9736 21.4298 12.0925 21.4887H12.0989C12.4423 21.6587 12.7985 21.7463 13.0803 21.8094C13.9577 21.9919 14.8352 22.0169 15.8655 21.9919C16.0619 21.9984 16.2707 21.9984 16.4855 21.9984C17.0272 22.0047 17.5687 21.9688 18.1051 21.8908C18.4551 21.8407 18.835 21.7774 19.2092 21.6457C19.4022 21.5787 19.5891 21.4943 19.7676 21.3936C19.8673 21.3367 19.9636 21.2738 20.0559 21.2051C20.1076 21.1663 20.1568 21.124 20.2032 21.0787C20.7857 20.5632 20.8659 19.8078 20.4057 19.115Z" fill="#2B4655"/>
<path d="M14.8162 16.0117H14.8225C14.8225 16.0182 14.8347 16.0248 14.8406 16.0306C14.9511 16.1313 15.4048 16.4963 15.9633 16.4712C16.2515 16.4587 16.5705 16.3389 16.8837 16.0181C16.9226 15.9698 16.968 15.9275 17.0185 15.8923C17.1529 15.7699 17.2633 15.6224 17.3439 15.4576C17.6285 14.9767 17.8065 14.4373 17.8651 13.8779C17.9071 13.5733 17.9092 13.2643 17.8715 12.9591C17.761 11.9706 17.2944 11.3858 16.4298 11.1716C16.184 11.1025 15.908 11.0894 15.546 11.1209C14.7731 11.1841 14.1658 11.6814 13.9387 12.4493C13.8054 12.904 13.774 13.3838 13.8469 13.8528C13.9759 14.8413 14.27 15.5085 14.8162 16.0117Z" fill="white"/>
<path d="M19.8345 19.518C19.6771 19.2972 19.4841 19.1057 19.2639 18.9516L19.2458 18.9327C19.1779 18.8886 19.1227 18.8385 19.0553 18.8009C19.0252 18.774 18.9922 18.7506 18.9571 18.7312C18.8531 18.662 18.7426 18.5928 18.6322 18.5237C18.5033 18.4481 18.362 18.3728 18.2208 18.3031C17.9698 18.1773 17.6937 18.058 17.3991 17.9447C17.2425 17.8885 17.1018 17.7936 16.9894 17.6684C16.877 17.5432 16.7964 17.3916 16.7547 17.2269C16.7359 17.1545 16.7215 17.081 16.7117 17.0068C16.5011 17.1061 16.2742 17.1638 16.0428 17.1769C16.0021 17.1819 15.9612 17.1839 15.9202 17.1829C15.6422 17.1801 15.3674 17.1223 15.1107 17.0128C15.0716 17.0354 15.0305 17.0544 14.9881 17.0695C14.9891 17.0825 14.9869 17.0956 14.9818 17.1076C14.8958 17.5291 14.6505 17.8189 14.27 17.9632C14.1351 18.0139 14.0003 18.0706 13.8655 18.1333C13.4328 18.3228 13.0179 18.5525 12.626 18.8196C12.2948 19.0463 12.0739 19.2542 11.9142 19.4742C11.7916 19.6382 11.6626 19.8832 11.712 20.1414C11.7395 20.2923 11.8149 20.4296 11.9264 20.5319C11.9858 20.5936 12.0517 20.6484 12.1228 20.6953C12.479 20.9349 12.902 21.0417 13.2211 21.1111C13.6601 21.1997 14.1052 21.2523 14.5524 21.2684C14.9632 21.2873 15.3926 21.2873 15.8592 21.281H15.8773C16.5153 21.2999 17.2638 21.2999 18.0064 21.1927C18.0354 21.1913 18.0642 21.1871 18.0924 21.1802C18.2638 21.1552 18.4358 21.1235 18.6136 21.0794C18.8 21.0407 18.9812 20.9794 19.1535 20.897C19.3285 20.8329 19.4938 20.7438 19.6445 20.6323C20.0431 20.33 20.1106 19.9396 19.8345 19.518Z" fill="white"/>
<path d="M12.1716 18.2779C8.80938 18.0955 6.13477 15.2378 6.13477 11.7505C6.13477 8.15001 8.98736 5.21643 12.5031 5.21643C16.0124 5.21643 18.8715 8.14982 18.8715 11.7505C18.8734 12.4082 18.7758 13.0622 18.5823 13.6891C18.5955 13.4202 18.5874 13.1506 18.5579 12.8831C18.5225 12.4966 18.4208 12.1195 18.2574 11.7693V11.7504C18.2574 8.49632 15.6745 5.84636 12.5028 5.84636C10.977 5.84753 9.51399 6.46995 8.43505 7.57692C7.35612 8.68389 6.74945 10.1849 6.74826 11.7505C6.74938 13.316 7.35602 14.8172 8.43496 15.9242C9.5139 17.0312 10.9769 17.6536 12.5028 17.6548C12.7904 17.6544 13.0775 17.6313 13.3617 17.5856C12.9685 17.7693 12.5909 17.9861 12.2326 18.2338C12.2129 18.2467 12.1944 18.2614 12.1774 18.2778C12.1774 18.2778 12.1716 18.272 12.1716 18.2779Z" fill="#2B4655"/>
<path d="M12.0918 21.4885C7.04273 21.2744 3 16.9877 3 11.7505C3 6.375 7.26399 2 12.5032 2C17.7424 2 22 6.37496 22 11.7505C22.0024 14.1638 21.1274 16.4913 19.5461 18.2779C19.4665 18.2278 19.3863 18.1711 19.3067 18.1145C19.1288 18.0011 18.9447 17.8877 18.7424 17.7806C20.2444 16.1512 21.0808 13.9932 21.0796 11.7505C21.0796 6.89731 17.2333 2.9444 12.5032 2.9444C7.76674 2.9444 3.92044 6.89731 3.92044 11.7505C3.92044 16.0999 7.01243 19.732 11.0673 20.4308C11.1719 20.7641 11.4049 21.0664 11.7484 21.287C11.8581 21.3623 11.9729 21.4297 12.0918 21.4885Z" fill="#2B4655"/>
</svg>
