<svg width="24" height="24" viewBox="0 0 24 24" fill="none" xmlns="http://www.w3.org/2000/svg">
<path d="M20.1317 11.7623C20.1652 12.8404 19.9785 13.9141 19.5828 14.9184C19.1872 15.9227 18.5909 16.8369 17.83 17.6056C17.4605 17.9799 17.055 18.3172 16.6194 18.6129C16.4578 18.7222 16.292 18.826 16.1222 18.9241C16.045 18.9691 15.9668 19.0121 15.8881 19.0542C14.9442 19.5576 13.9082 19.8674 12.8416 19.965C12.695 19.9787 12.5466 19.9885 12.3977 19.9943L12.3282 19.9964C12.1777 20.0008 12.0282 20.0014 11.8794 19.9969C11.8517 19.9969 11.8241 19.9961 11.7969 19.9945C11.75 19.9934 11.703 19.9913 11.656 19.9888C11.6298 19.9876 11.6045 19.9859 11.5789 19.9847C11.522 19.9808 11.4651 19.9772 11.4086 19.9726C11.3636 19.9685 11.3186 19.9644 11.2735 19.9598C11.0214 19.9349 10.7719 19.8976 10.5272 19.8498C10.5078 19.846 10.4884 19.8421 10.469 19.8379C10.3458 19.813 10.2235 19.7852 10.1022 19.7544C10.0544 19.7426 10.0072 19.7298 9.95986 19.7169C9.76425 19.6638 9.57166 19.6035 9.3821 19.5361C9.27679 19.4985 9.17258 19.4589 9.06949 19.4173C9.005 19.3917 8.94153 19.3651 8.87848 19.3375C8.74695 19.2805 8.61674 19.2196 8.48843 19.1556C8.37867 19.1014 8.27032 19.0444 8.16337 18.9846C7.98869 18.8877 7.81772 18.7837 7.65153 18.6743C7.64595 18.6704 7.64098 18.6672 7.6354 18.6634C7.34503 18.4714 7.06761 18.2607 6.8049 18.0326C5.96704 17.309 5.2893 16.4203 4.81451 15.4229C4.33973 14.4255 4.07822 13.341 4.04653 12.238C3.99842 10.6312 4.43811 9.04723 5.30831 7.69244C6.17851 6.33765 7.4389 5.27482 8.92528 4.64241C9.85115 4.249 10.8432 4.03233 11.8497 4.00373C12.5877 3.98133 13.3253 4.05994 14.0418 4.23737C14.1493 4.26416 14.2563 4.29288 14.3619 4.32411C14.5103 4.36734 14.6567 4.41473 14.8011 4.46626C16.3242 5.00879 17.6476 5.99513 18.5985 7.29663C19.5494 8.59812 20.0837 10.1544 20.1317 11.7623Z" fill="#C8D1D3"/>
<path d="M5.89954 8.6962L5.77608 8.80963C5.76918 8.81563 5.76038 8.81904 5.75122 8.81926C5.68251 8.82605 5.53051 8.72346 5.38529 8.56708C5.21879 8.38784 5.12394 8.20575 5.17315 8.16053L5.29665 8.0471L5.3269 8.03766L5.89954 8.6962Z" fill="#BB8535"/>
<path d="M5.89977 8.69603C5.85045 8.74133 5.67553 8.63288 5.50918 8.45379C5.34283 8.27471 5.24787 8.0927 5.29723 8.0474C5.34659 8.00209 5.52143 8.11066 5.68786 8.28963C5.85429 8.4686 5.94913 8.65069 5.89977 8.69603Z" fill="#FCB831"/>
<path d="M5.77672 8.80957L5.7574 8.82646L5.75098 8.81916C5.76047 8.8189 5.76958 8.81551 5.77672 8.80957" fill="#BB8535"/>
<path d="M10.5409 9.72695C9.67938 9.1343 8.53813 8.78932 7.29532 8.8261C6.06884 8.86242 4.96284 9.26357 4.1416 9.89162L4.19631 9.91448C7.43527 10.7103 10.5102 9.73674 10.5409 9.72695Z" fill="#3E5868"/>
<path d="M10.9211 8.93385C10.9317 9.28897 9.31995 9.62481 7.32113 9.68384C5.32231 9.74287 3.69333 9.50306 3.68267 9.14794C3.67201 8.79282 5.2838 8.45701 7.28263 8.39787C9.28145 8.33873 10.9105 8.57873 10.9211 8.93385Z" fill="#6D899D"/>
<path d="M10.3081 8.81188C10.3127 8.96675 8.95868 9.13254 7.28402 9.182C5.60937 9.23147 4.24787 9.14615 4.24318 8.99124C4.23848 8.83633 5.59258 8.67062 7.26723 8.62112C8.94189 8.57161 10.3034 8.65697 10.3081 8.81188Z" fill="#3E5868"/>
<path d="M10.5416 9.72705C10.5109 9.73684 7.43596 10.7104 4.19697 9.91458L4.14226 9.89171C3.21792 10.5986 2.65439 11.5929 2.68688 12.6788C2.74822 14.7294 4.91138 16.3292 7.51836 16.252C10.1253 16.1749 12.1888 14.4499 12.1274 12.3995C12.0953 11.3265 11.4871 10.3775 10.5416 9.72705Z" fill="#6D899D"/>
<path d="M14.2943 12.4706L12.954 12.3854C12.8439 12.3783 12.7346 12.4091 12.6446 12.4728L8.15296 14.5135C8.15296 14.5135 8.06789 14.5634 8.00391 14.7407L8.74336 15.4901L14.7019 12.7498C14.6656 12.671 14.6086 12.6034 14.5369 12.5542C14.4651 12.5051 14.3813 12.4762 14.2943 12.4706Z" fill="#D79E39"/>
<path d="M15.068 14.6081L14.738 12.8608C14.7308 12.8225 14.7189 12.7853 14.7026 12.7499L8.74414 15.4902L10.3999 17.1682L14.6931 15.1658L14.8921 15.073C14.9614 15.019 15.0145 14.947 15.0455 14.865C15.0766 14.783 15.0844 14.6942 15.068 14.6081Z" fill="#BB8535"/>
<path d="M14.6934 15.1657L14.8924 15.0728C14.8343 15.1189 14.7661 15.1507 14.6934 15.1657" fill="#EBAE36"/>
<path d="M10.6934 14.576L13.6058 13.2524L14.0177 13.0652C14.1136 13.0216 14.0564 12.8677 13.9595 12.9118L11.0472 14.2353L10.6353 14.4225C10.5394 14.4662 10.5965 14.62 10.6935 14.576" fill="#FCB831"/>
<path d="M10.0748 17.2673L7.85367 17.1261C7.78037 17.1214 7.70912 17.1002 7.64534 17.064C7.58156 17.0277 7.52695 16.9775 7.48568 16.9171C7.4444 16.8567 7.41755 16.7877 7.40718 16.7154C7.3968 16.6431 7.40318 16.5694 7.42582 16.5L7.97682 14.8087C8.00985 14.7074 8.0759 14.6199 8.16453 14.56C8.25316 14.5001 8.35932 14.4713 8.46625 14.4781L9.80647 14.5633C9.91341 14.5701 10.015 14.6121 10.0953 14.6827C10.1755 14.7534 10.2298 14.8485 10.2496 14.9533L10.5794 16.7005C10.593 16.7722 10.5899 16.8461 10.5703 16.9165C10.5508 16.9869 10.5153 17.0519 10.4666 17.1066C10.4179 17.1613 10.3573 17.2042 10.2894 17.2321C10.2215 17.2599 10.1481 17.272 10.0748 17.2673Z" fill="#FCB831"/>
<path d="M17.4877 12.8096L16.1474 12.7244C16.0372 12.7173 15.928 12.7481 15.838 12.8117L11.3464 14.8525C11.3464 14.8525 11.2611 14.9023 11.1973 15.0797L11.9367 15.8291L17.8952 13.0888C17.859 13.0099 17.802 12.9424 17.7302 12.8932C17.6585 12.844 17.5747 12.8151 17.4877 12.8096Z" fill="#D79E39"/>
<path d="M18.2594 14.947L17.9295 13.1997C17.9222 13.1615 17.9103 13.1242 17.894 13.0888L11.9355 15.8291L13.5913 17.5071L17.8845 15.5047L18.0835 15.4119C18.1528 15.3579 18.2059 15.286 18.237 15.204C18.268 15.122 18.2758 15.0331 18.2594 14.947Z" fill="#BB8535"/>
<path d="M17.8848 15.5047L18.0838 15.4118C18.0257 15.4578 17.9575 15.4897 17.8848 15.5047Z" fill="#EBAE36"/>
<path d="M13.8868 14.915L16.7991 13.5914L17.211 13.4042C17.307 13.3606 17.2498 13.2067 17.1529 13.2508L14.2406 14.5743C14.1033 14.6368 13.966 14.6992 13.8287 14.7615C13.7327 14.8052 13.7899 14.959 13.8868 14.915" fill="#FCB831"/>
<path d="M13.2663 17.6062L11.0451 17.465C10.9718 17.4604 10.9006 17.4391 10.8368 17.4029C10.773 17.3667 10.7184 17.3165 10.6771 17.2561C10.6358 17.1957 10.609 17.1267 10.5986 17.0544C10.5882 16.9821 10.5946 16.9084 10.6172 16.8389L11.1683 15.1477C11.2013 15.0463 11.2673 14.9588 11.3559 14.8989C11.4446 14.839 11.5507 14.8102 11.6577 14.817L12.9979 14.9022C13.1048 14.909 13.2065 14.951 13.2867 15.0217C13.3669 15.0923 13.4212 15.1875 13.441 15.2922L13.7709 17.0394C13.7844 17.1112 13.7813 17.1851 13.7618 17.2555C13.7422 17.3259 13.7067 17.3909 13.6581 17.4456C13.6094 17.5003 13.5488 17.5432 13.4809 17.571C13.413 17.5989 13.3396 17.6109 13.2663 17.6062Z" fill="#FCB831"/>
<path d="M20.7103 13.0408L19.3701 12.9556C19.2599 12.9485 19.1506 12.9793 19.0607 13.0429L14.569 15.0837C14.569 15.0837 14.4839 15.1335 14.4199 15.3109L15.1594 16.0603L21.1179 13.32C21.0817 13.2412 21.0246 13.1736 20.9529 13.1244C20.8811 13.0753 20.7973 13.0463 20.7103 13.0408Z" fill="#D79E39"/>
<path d="M21.484 15.1782L21.1541 13.4309C21.1468 13.3927 21.1349 13.3554 21.1186 13.32L15.1602 16.0603L16.8159 17.7383L21.1093 15.7359L21.3083 15.6431C21.3776 15.5891 21.4307 15.5171 21.4617 15.4351C21.4927 15.3531 21.5004 15.2643 21.484 15.1782Z" fill="#BB8535"/>
<path d="M21.1074 15.7359L21.3064 15.643C21.2483 15.689 21.1802 15.7209 21.1074 15.7359Z" fill="#EBAE36"/>
<path d="M17.1095 15.1462L20.0218 13.8226L20.4337 13.6354C20.5296 13.5918 20.4724 13.4379 20.3755 13.482C19.4047 13.9231 18.4339 14.3643 17.4632 14.8055L17.0513 14.9927C16.9554 15.0364 17.0126 15.1902 17.1095 15.1462" fill="#FCB831"/>
<path d="M16.4889 17.8374L14.2677 17.6962C14.1944 17.6916 14.1232 17.6703 14.0594 17.6341C13.9956 17.5979 13.941 17.5476 13.8997 17.4872C13.8585 17.4268 13.8316 17.3579 13.8212 17.2856C13.8109 17.2133 13.8172 17.1396 13.8399 17.0701L14.3909 15.3789C14.4239 15.2775 14.49 15.19 14.5786 15.1301C14.6672 15.0702 14.7734 15.0414 14.8803 15.0482L16.2205 15.1334C16.3275 15.1402 16.4291 15.1822 16.5093 15.2529C16.5896 15.3235 16.6439 15.4187 16.6636 15.5234L16.9935 17.2707C17.0071 17.3424 17.0039 17.4163 16.9844 17.4867C16.9648 17.5571 16.9294 17.6221 16.8807 17.6768C16.832 17.7315 16.7714 17.7744 16.7035 17.8022C16.6356 17.8301 16.5622 17.8421 16.4889 17.8374Z" fill="#FCB831"/>
<path d="M16.3588 9.8781L15.0185 9.79293C14.9083 9.78583 14.7991 9.81666 14.7091 9.88026L10.2175 11.9211C10.2175 11.9211 10.1321 11.9708 10.0684 12.1483L10.8078 12.8976L16.7663 10.1573C16.7301 10.0785 16.6731 10.0109 16.6013 9.96174C16.5296 9.91257 16.4458 9.88367 16.3588 9.8781Z" fill="#D79E39"/>
<path d="M17.1325 12.0155L16.8025 10.2682C16.7953 10.23 16.7834 10.1927 16.7671 10.1573L10.8086 12.8976L12.4643 14.5757L16.7578 12.5732L16.9567 12.4804C17.0261 12.4263 17.0791 12.3544 17.1101 12.2724C17.1411 12.1904 17.1488 12.1015 17.1325 12.0155Z" fill="#BB8535"/>
<path d="M16.7578 12.5732L16.9568 12.4803C16.8987 12.5263 16.8305 12.5582 16.7578 12.5732Z" fill="#EBAE36"/>
<path d="M12.7579 11.9835L15.6702 10.6599L16.0821 10.4727C16.1781 10.4291 16.1209 10.2752 16.0239 10.3193L13.1117 11.6429L12.6998 11.8301C12.6038 11.8737 12.661 12.0275 12.7579 11.9835" fill="#FCB831"/>
<path d="M12.1373 14.6748L9.91621 14.5336C9.84291 14.5289 9.77165 14.5077 9.70787 14.4714C9.64409 14.4352 9.58947 14.385 9.54819 14.3246C9.50691 14.2642 9.48006 14.1952 9.46968 14.1229C9.4593 14.0506 9.46568 13.9769 9.48832 13.9074L10.0394 12.2162C10.0724 12.1149 10.1384 12.0273 10.227 11.9675C10.3157 11.9076 10.4218 11.8788 10.5288 11.8856L11.869 11.9708C11.9759 11.9776 12.0775 12.0196 12.1578 12.0902C12.238 12.1608 12.2923 12.256 12.312 12.3607L12.6419 14.1079C12.6554 14.1797 12.6523 14.2536 12.6328 14.324C12.6132 14.3944 12.5778 14.4594 12.5291 14.5141C12.4804 14.5688 12.4198 14.6117 12.3519 14.6396C12.284 14.6674 12.2106 14.6795 12.1373 14.6748Z" fill="#FCB831"/>
<path d="M18.4721 7.41515L17.1318 7.32998C17.0216 7.32287 16.9123 7.35372 16.8224 7.41735L12.3307 9.45813C12.3307 9.45813 12.2456 9.50794 12.1816 9.68532L12.9211 10.4347L18.8796 7.69436C18.8434 7.61554 18.7864 7.54795 18.7146 7.49879C18.6429 7.44962 18.559 7.42072 18.4721 7.41515Z" fill="#D79E39"/>
<path d="M19.2438 9.55246L18.9138 7.80519C18.9066 7.76692 18.8947 7.72967 18.8784 7.69427L12.9199 10.4346L14.5757 12.1126L18.8691 10.1102L19.0681 10.0174C19.1374 9.96333 19.1904 9.89138 19.2214 9.80939C19.2524 9.72741 19.2602 9.63853 19.2438 9.55246Z" fill="#BB8535"/>
<path d="M18.8691 10.1102L19.0681 10.0173C19.01 10.0634 18.9419 10.0952 18.8691 10.1102" fill="#EBAE36"/>
<path d="M14.8692 9.52051L17.7816 8.19688L18.1934 8.0097C18.2894 7.96609 18.2322 7.81226 18.1353 7.85629L15.223 9.17985L14.8111 9.36707C14.7152 9.41067 14.7723 9.5645 14.8693 9.52047" fill="#FCB831"/>
<path d="M14.2506 12.2118L12.0294 12.0706C11.9561 12.0659 11.8849 12.0446 11.8211 12.0084C11.7574 11.9722 11.7027 11.922 11.6615 11.8616C11.6202 11.8012 11.5933 11.7322 11.583 11.6599C11.5726 11.5876 11.579 11.5139 11.6016 11.4445L12.1526 9.75322C12.1856 9.65187 12.2517 9.56434 12.3403 9.50445C12.4289 9.44457 12.5351 9.41575 12.642 9.42255L13.9822 9.50775C14.0892 9.51453 14.1908 9.55655 14.271 9.62718C14.3513 9.6978 14.4056 9.793 14.4253 9.89772L14.7552 11.645C14.7688 11.7168 14.7657 11.7907 14.7461 11.8611C14.7266 11.9315 14.6911 11.9965 14.6424 12.0512C14.5937 12.1058 14.5331 12.1487 14.4652 12.1766C14.3973 12.2044 14.3239 12.2164 14.2506 12.2118Z" fill="#FCB831"/>
<path d="M19.7826 10.1973L18.4423 10.1121C18.3322 10.105 18.2229 10.1358 18.1329 10.1995L13.6413 12.2402C13.6413 12.2402 13.556 12.29 13.4922 12.4674L14.2316 13.2168L20.1901 10.4765C20.1539 10.3976 20.0969 10.3301 20.0252 10.2809C19.9534 10.2317 19.8696 10.2028 19.7826 10.1973Z" fill="#D79E39"/>
<path d="M20.5563 12.3347L20.2263 10.5875C20.2191 10.5492 20.2072 10.5119 20.1908 10.4765L14.2324 13.2168L15.8882 14.8949L20.1813 12.8924L20.3803 12.7996C20.4497 12.7456 20.5028 12.6736 20.5338 12.5917C20.5649 12.5097 20.5726 12.4208 20.5563 12.3347Z" fill="#BB8535"/>
<path d="M20.1816 12.8924L20.3806 12.7994C20.3225 12.8455 20.2544 12.8773 20.1816 12.8924" fill="#EBAE36"/>
<path d="M16.1817 12.3027L19.0941 10.979L19.506 10.7919C19.6019 10.7483 19.5448 10.5944 19.4478 10.6385L16.5355 11.962L16.1236 12.1492C16.0277 12.1928 16.0848 12.3467 16.1818 12.3026" fill="#FCB831"/>
<path d="M15.5612 14.9939L13.34 14.8527C13.2668 14.8481 13.1955 14.8268 13.1317 14.7906C13.0679 14.7544 13.0133 14.7042 12.972 14.6438C12.9308 14.5834 12.9039 14.5144 12.8935 14.4421C12.8831 14.3698 12.8895 14.2961 12.9121 14.2266L13.4632 12.5354C13.4962 12.434 13.5622 12.3465 13.6509 12.2866C13.7395 12.2267 13.8457 12.1979 13.9526 12.2047L15.2928 12.2899C15.3997 12.2967 15.5014 12.3387 15.5816 12.4094C15.6618 12.48 15.7161 12.5752 15.7359 12.6799L16.0658 14.4272C16.0794 14.4989 16.0762 14.5728 16.0567 14.6432C16.0371 14.7136 16.0016 14.7786 15.953 14.8333C15.9043 14.888 15.8437 14.9309 15.7758 14.9587C15.7079 14.9866 15.6345 14.9986 15.5612 14.9939Z" fill="#FCB831"/>
<path d="M5.43414 8.33554L5.43914 8.50259C5.43918 8.51172 5.436 8.52058 5.43014 8.52761C5.39021 8.58375 5.21261 8.6304 4.99865 8.63676C4.75335 8.64401 4.55272 8.59562 4.5509 8.52904L4.5459 8.36191L4.55858 8.33307L5.43414 8.33554Z" fill="#BB8535"/>
<path d="M5.43365 8.33571C5.43563 8.40245 5.23853 8.46244 4.99358 8.46973C4.74863 8.47701 4.54789 8.42874 4.54591 8.36197C4.54394 8.29519 4.74099 8.2352 4.98614 8.22795C5.23128 8.22071 5.43175 8.26905 5.43365 8.33571Z" fill="#FCB831"/>
<path d="M5.43949 8.50281L5.44025 8.52772L5.43066 8.5275C5.43641 8.52056 5.43953 8.51182 5.43949 8.50281" fill="#BB8535"/>
<path d="M5.89215 7.96475L5.89715 8.1318C5.89719 8.14093 5.894 8.14979 5.88815 8.15682C5.84817 8.213 5.67062 8.25961 5.45665 8.26597C5.21136 8.27322 5.01073 8.22483 5.00891 8.15825L5.00391 7.99116L5.01655 7.96228L5.89215 7.96475Z" fill="#BB8535"/>
<path d="M5.8917 7.96492C5.89367 8.03166 5.69658 8.09165 5.45163 8.09874C5.20668 8.10584 5.00594 8.05792 5.00392 7.99118C5.00191 7.92444 5.19908 7.86441 5.44418 7.85716C5.68929 7.84992 5.8898 7.89826 5.8917 7.96492Z" fill="#FCB831"/>
<path d="M5.89652 8.13202L5.89728 8.15694L5.8877 8.15671C5.89343 8.14976 5.89656 8.14103 5.89652 8.13202Z" fill="#BB8535"/>
<path d="M5.90327 8.26691L5.97261 8.4192C5.97619 8.42758 5.9767 8.43696 5.97404 8.44568C5.95884 8.51269 5.81304 8.6238 5.618 8.7117C5.39446 8.81237 5.19073 8.84452 5.16312 8.7838L5.09375 8.63155L5.09425 8.60005L5.90327 8.26691Z" fill="#BB8535"/>
<path d="M5.90302 8.26698C5.93074 8.32778 5.77207 8.45868 5.54864 8.55926C5.32522 8.65985 5.12164 8.69208 5.09396 8.6312C5.06627 8.57033 5.2249 8.43951 5.44833 8.33893C5.67176 8.23834 5.87533 8.20611 5.90302 8.26698Z" fill="#FCB831"/>
<path d="M5.97266 8.41919L5.98293 8.44201L5.97406 8.44532C5.97667 8.43672 5.97617 8.42747 5.97266 8.41919" fill="#BB8535"/>
<path d="M6.57717 8.1706L6.56806 8.3375C6.56734 8.34659 6.56343 8.35515 6.55701 8.36167C6.5125 8.41414 6.33157 8.44583 6.1178 8.43431C5.87277 8.42112 5.67711 8.35604 5.68071 8.28965L5.68983 8.12275L5.70487 8.09503L6.57717 8.1706Z" fill="#BB8535"/>
<path d="M6.57635 8.17064C6.5727 8.23714 6.37122 8.28067 6.12631 8.26749C5.88141 8.2543 5.68586 8.18953 5.6895 8.12283C5.69315 8.05613 5.89459 8.0128 6.1393 8.02598C6.38402 8.03917 6.57995 8.10394 6.57635 8.17064Z" fill="#FCB831"/>
<path d="M6.56748 8.33759L6.56611 8.36246L6.55664 8.36144C6.56294 8.355 6.56677 8.34656 6.56748 8.33759" fill="#BB8535"/>
<path d="M6.75769 8.31317L6.79837 8.47537C6.80038 8.48427 6.79917 8.4936 6.79495 8.5017C6.76781 8.56485 6.60445 8.64821 6.39676 8.6996C6.15864 8.75866 5.95243 8.75392 5.93618 8.68927L5.89551 8.52707L5.90167 8.49623L6.75769 8.31317Z" fill="#BB8535"/>
<path d="M6.7571 8.31323C6.77334 8.37804 6.5935 8.47839 6.35569 8.53742C6.11787 8.59645 5.91163 8.59182 5.89553 8.52701C5.87944 8.4622 6.05897 8.36184 6.29694 8.30282C6.53491 8.24379 6.74085 8.24842 6.7571 8.31323Z" fill="#FCB831"/>
<path d="M6.79812 8.47534L6.80428 8.4995L6.79492 8.50132C6.79899 8.4933 6.80012 8.48411 6.79812 8.47534Z" fill="#BB8535"/>
<path d="M6.54049 8.8683L6.52246 9.03447C6.52123 9.04351 6.51684 9.05184 6.51005 9.05799C6.46255 9.10799 6.28019 9.12985 6.06739 9.1068C5.82341 9.08035 5.63158 9.00494 5.63887 8.93866L5.65706 8.77253L5.67362 8.74554L6.54049 8.8683Z" fill="#BB8535"/>
<path d="M6.54031 8.86827C6.53306 8.93463 6.32949 8.96705 6.08567 8.94064C5.84184 8.91423 5.65017 8.83893 5.65743 8.77254C5.66468 8.70615 5.86825 8.67377 6.11211 8.70018C6.35597 8.72659 6.5476 8.80188 6.54031 8.86827Z" fill="#FCB831"/>
<path d="M6.52175 9.03448L6.51901 9.05925L6.50977 9.05769C6.51635 9.0516 6.52059 9.04338 6.52175 9.03448Z" fill="#BB8535"/>
<path d="M7.14648 8.9215L7.27658 9.02741C7.28382 9.03301 7.2928 9.03591 7.30198 9.03562C7.371 9.03832 7.51652 8.9269 7.6522 8.76223C7.80769 8.57332 7.89149 8.38606 7.8396 8.34384L7.70951 8.23794L7.6788 8.23022L7.14648 8.9215Z" fill="#BB8535"/>
<path d="M7.14821 8.92134C7.20017 8.96375 7.3683 8.845 7.52368 8.65635C7.67905 8.46771 7.76293 8.28045 7.71097 8.23812C7.65901 8.19579 7.49087 8.31446 7.33546 8.5031C7.18005 8.69175 7.09625 8.87904 7.14821 8.92134Z" fill="#FCB831"/>
<path d="M7.27734 9.02734L7.29766 9.04313L7.30364 9.03552C7.29414 9.03579 7.28484 9.03289 7.27734 9.02734" fill="#BB8535"/>
<path d="M7.58984 8.53416L7.59485 8.70129C7.59538 8.71037 7.5991 8.71898 7.60535 8.72562C7.64863 8.77921 7.8287 8.81529 8.04267 8.80893C8.28781 8.80153 8.4851 8.74154 8.48309 8.67492L8.47808 8.50783L8.46374 8.4798L7.58984 8.53416Z" fill="#BB8535"/>
<path d="M7.58986 8.53409C7.59184 8.60083 7.79219 8.6491 8.03737 8.64204C8.28255 8.63499 8.47961 8.57457 8.47759 8.50783C8.47558 8.4411 8.27526 8.39298 8.03008 8.40011C7.7849 8.40725 7.58788 8.46735 7.58986 8.53409Z" fill="#FCB831"/>
<path d="M7.5957 8.70117L7.59646 8.72609L7.60594 8.72525C7.5998 8.71867 7.59618 8.71015 7.5957 8.70117" fill="#BB8535"/>
<path d="M7.11133 8.19102L7.11633 8.35815C7.11682 8.36727 7.12053 8.37592 7.1268 8.38259C7.17003 8.43615 7.35011 8.47219 7.56408 8.46587C7.80929 8.45839 8.00659 8.3984 8.00457 8.33178L7.99957 8.16473L7.98522 8.13666L7.11133 8.19102Z" fill="#BB8535"/>
<path d="M7.11134 8.1911C7.11332 8.25784 7.31368 8.30611 7.55886 8.29906C7.80404 8.292 8.00109 8.23159 7.99912 8.16485C7.99714 8.09811 7.79675 8.05 7.5516 8.05709C7.30646 8.06418 7.10937 8.12437 7.11134 8.1911Z" fill="#FCB831"/>
<path d="M7.11523 8.35809L7.116 8.38301L7.12551 8.38221C7.11935 8.37563 7.11572 8.36709 7.11523 8.35809" fill="#BB8535"/>
<path d="M7.11714 8.49323L7.05704 8.64929C7.0539 8.65789 7.0539 8.6673 7.05704 8.67589C7.07639 8.74186 7.22854 8.84407 7.42836 8.92021C7.65756 9.0075 7.86284 9.02751 7.8868 8.96528L7.94702 8.80937L7.94462 8.77795L7.11714 8.49323Z" fill="#BB8535"/>
<path d="M7.11752 8.49327C7.0936 8.55561 7.25983 8.67686 7.48884 8.76411C7.71785 8.85136 7.92313 8.87141 7.94702 8.80903C7.97091 8.74665 7.80483 8.62543 7.57578 8.53822C7.34673 8.45101 7.14164 8.43093 7.11752 8.49327Z" fill="#FCB831"/>
<path d="M7.05777 8.64923L7.04883 8.67251L7.05796 8.67544C7.05482 8.667 7.05475 8.65772 7.05777 8.64923" fill="#BB8535"/>
<path d="M6.43945 8.43693L6.45853 8.60299C6.4598 8.61202 6.46422 8.62033 6.47102 8.62646C6.51863 8.67624 6.70107 8.69713 6.91376 8.67304C7.15754 8.64536 7.34902 8.56894 7.34142 8.50278L7.32238 8.33673L7.30567 8.30994L6.43945 8.43693Z" fill="#BB8535"/>
<path d="M6.43968 8.43691C6.44744 8.5033 6.65105 8.53464 6.89472 8.50696C7.13838 8.47928 7.32974 8.40313 7.3221 8.33674C7.31447 8.27035 7.11078 8.23905 6.86711 8.26673C6.62344 8.29441 6.43193 8.37055 6.43968 8.43691Z" fill="#FCB831"/>
<path d="M6.45898 8.60297L6.4618 8.62773L6.47127 8.62613C6.46458 8.62009 6.46023 8.61189 6.45898 8.60297" fill="#BB8535"/>
<path d="M6.26784 8.58984L6.23682 8.75412C6.23537 8.76314 6.23714 8.77237 6.24182 8.78022C6.27257 8.84191 6.44078 8.91516 6.65122 8.95429C6.89244 8.99913 7.09799 8.98217 7.11029 8.91667L7.14131 8.75239L7.13324 8.72193L6.26784 8.58984Z" fill="#BB8535"/>
<path d="M6.26816 8.58992C6.25583 8.65558 6.44122 8.7451 6.68229 8.78998C6.92336 8.83485 7.12879 8.81797 7.14116 8.75235C7.15353 8.68673 6.96814 8.59713 6.72707 8.55233C6.486 8.50753 6.28053 8.52426 6.26816 8.58992Z" fill="#FCB831"/>
<path d="M6.23702 8.75415L6.23242 8.77861L6.24189 8.7799C6.23727 8.77217 6.23555 8.76304 6.23702 8.75415" fill="#BB8535"/>
<path d="M6.51758 9.13108L6.54569 9.2959C6.54746 9.30484 6.55232 9.31289 6.55942 9.31865C6.60983 9.36576 6.79304 9.37679 7.0041 9.3412C7.24606 9.30049 7.433 9.21378 7.42179 9.14801L7.39372 8.98323L7.37561 8.9574L6.51758 9.13108Z" fill="#BB8535"/>
<path d="M6.51806 9.131C6.52934 9.19689 6.73446 9.21717 6.97623 9.17634C7.218 9.13551 7.40494 9.04911 7.39369 8.98326C7.38245 8.91741 7.17725 8.89713 6.93556 8.93792C6.69387 8.97871 6.50685 9.06519 6.51806 9.131Z" fill="#FCB831"/>
<path d="M6.5459 9.29596L6.55008 9.32053L6.55936 9.3184C6.5524 9.31272 6.54764 9.30478 6.5459 9.29596" fill="#BB8535"/>
<path d="M7.45717 8.34964L7.33371 8.46307C7.32681 8.46907 7.31801 8.47248 7.30885 8.47271C7.2401 8.47949 7.0881 8.3769 6.94292 8.22052C6.77642 8.04129 6.68153 7.85916 6.73078 7.81393L6.85428 7.70055L6.88449 7.6911L7.45717 8.34964Z" fill="#BB8535"/>
<path d="M7.45645 8.34959C7.40713 8.39493 7.23221 8.28644 7.06583 8.10736C6.89944 7.92827 6.80451 7.74626 6.85388 7.70096C6.90324 7.65566 7.07808 7.76423 7.2445 7.9432C7.41093 8.12216 7.50582 8.30429 7.45645 8.34959Z" fill="#FCB831"/>
<path d="M7.33433 8.46313L7.31502 8.48002L7.30859 8.47264C7.31809 8.47246 7.32721 8.46909 7.33433 8.46313" fill="#BB8535"/>
<path d="M6.99176 7.9891L6.9968 8.15616C6.99681 8.16528 6.99361 8.17411 6.98776 8.18114C6.94782 8.23731 6.77023 8.28396 6.55626 8.29032C6.31097 8.29757 6.11034 8.24919 6.10852 8.18237L6.10352 8.01547L6.1162 7.98663L6.99176 7.9891Z" fill="#BB8535"/>
<path d="M6.99127 7.98915C6.99324 8.05589 6.79615 8.11588 6.5512 8.12298C6.30625 8.13007 6.10551 8.08215 6.10353 8.01541C6.10155 7.94867 6.29861 7.88864 6.54375 7.8814C6.78889 7.87415 6.98937 7.92249 6.99127 7.98915Z" fill="#FCB831"/>
<path d="M6.99711 8.15631L6.99787 8.18123L6.98828 8.181C6.99401 8.17405 6.99713 8.16532 6.99711 8.15631Z" fill="#BB8535"/>
<path d="M7.44976 7.61831L7.45477 7.78537C7.4548 7.7945 7.45162 7.80335 7.44577 7.81039C7.40583 7.86652 7.22824 7.91317 7.01427 7.91953C6.76897 7.92678 6.56835 7.8784 6.56653 7.81181L6.56152 7.64468L6.57416 7.61584L7.44976 7.61831Z" fill="#BB8535"/>
<path d="M7.44927 7.61843C7.45125 7.68516 7.25415 7.74515 7.00921 7.75244C6.76426 7.75973 6.56352 7.71142 6.56154 7.64468C6.55956 7.57794 6.75662 7.51792 7.00176 7.51067C7.2469 7.50342 7.44737 7.55177 7.44927 7.61843Z" fill="#FCB831"/>
<path d="M7.45414 7.78552L7.4549 7.81044L7.44531 7.81021C7.45106 7.80327 7.45418 7.79453 7.45414 7.78552" fill="#BB8535"/>
<path d="M7.46089 7.92041L7.53026 8.07266C7.53382 8.08108 7.53432 8.09048 7.53166 8.09922C7.51646 8.16623 7.37066 8.2773 7.17562 8.36525C6.95207 8.46591 6.74835 8.49803 6.72074 8.43734L6.65137 8.28509L6.65187 8.25359L7.46089 7.92041Z" fill="#BB8535"/>
<path d="M7.46064 7.92049C7.48837 7.98133 7.3297 8.11222 7.10627 8.21277C6.88284 8.31332 6.67931 8.34558 6.65158 8.28471C6.62386 8.22383 6.78253 8.09302 7.00596 7.99243C7.22938 7.89184 7.43296 7.85961 7.46064 7.92049Z" fill="#FCB831"/>
<path d="M7.5293 8.07263L7.53957 8.09546L7.53067 8.09884C7.53327 8.09021 7.53279 8.08094 7.5293 8.07263" fill="#BB8535"/>
<path d="M8.13479 7.82412L8.12568 7.99102C8.12496 8.00012 8.12105 8.00868 8.11463 8.0152C8.07011 8.06767 7.88918 8.09936 7.67541 8.08787C7.43039 8.07465 7.23472 8.00957 7.23833 7.94318L7.24744 7.77628L7.26253 7.7486L8.13479 7.82412Z" fill="#BB8535"/>
<path d="M8.13494 7.82415C8.1313 7.89066 7.92982 7.93418 7.68491 7.921C7.44 7.90781 7.24445 7.843 7.2481 7.77634C7.25174 7.70968 7.45318 7.66627 7.6979 7.6795C7.94261 7.69272 8.13855 7.75745 8.13494 7.82415Z" fill="#FCB831"/>
<path d="M8.12608 7.99103L8.12471 8.01591L8.11523 8.01488C8.12152 8.00844 8.12536 8 8.12608 7.99103Z" fill="#BB8535"/>
<path d="M8.31531 7.96667L8.35598 8.12887C8.358 8.13777 8.35679 8.1471 8.35257 8.1552C8.32543 8.21839 8.16207 8.30171 7.95438 8.35314C7.71626 8.4122 7.51005 8.40739 7.4938 8.34277L7.45312 8.18057L7.45929 8.14973L8.31531 7.96667Z" fill="#BB8535"/>
<path d="M8.31374 7.96673C8.32998 8.03154 8.15014 8.1319 7.91233 8.19092C7.67452 8.24995 7.46827 8.24532 7.45217 8.18051C7.43608 8.1157 7.61561 8.01535 7.85358 7.95632C8.09155 7.8973 8.29749 7.90192 8.31374 7.96673Z" fill="#FCB831"/>
<path d="M8.35476 8.12891L8.36096 8.1531L8.35156 8.15489C8.35563 8.14687 8.35676 8.13767 8.35476 8.12891Z" fill="#BB8535"/>
<path d="M8.09713 8.52172L8.0791 8.68785C8.07788 8.6969 8.0735 8.70524 8.06673 8.71141C8.01919 8.76141 7.83683 8.78327 7.62403 8.76018C7.38005 8.73377 7.18822 8.65836 7.19551 8.59208L7.2137 8.42591L7.23026 8.39893L8.09713 8.52172Z" fill="#BB8535"/>
<path d="M8.09797 8.52178C8.09072 8.58813 7.88715 8.62055 7.64332 8.59414C7.3995 8.56773 7.20779 8.49244 7.21504 8.42605C7.22229 8.35966 7.42587 8.32727 7.66977 8.35368C7.91367 8.38009 8.10526 8.45535 8.09797 8.52178Z" fill="#FCB831"/>
<path d="M8.08034 8.68793L8.0776 8.71273L8.06836 8.71117C8.07494 8.70505 8.07918 8.69683 8.08034 8.68793" fill="#BB8535"/>
<path d="M8.62695 8.57732L8.75705 8.68323C8.76428 8.68884 8.77328 8.69173 8.78244 8.6914C8.85147 8.69414 8.99699 8.58272 9.13267 8.41805C9.28816 8.22914 9.37195 8.04188 9.32007 7.99967L9.18998 7.89376L9.15931 7.88605L8.62695 8.57732Z" fill="#BB8535"/>
<path d="M8.62868 8.5771C8.68064 8.61951 8.84877 8.50076 9.00415 8.31212C9.15952 8.12347 9.24339 7.93621 9.19143 7.89388C9.13948 7.85155 8.97134 7.97022 8.81593 8.15886C8.66051 8.34751 8.57672 8.5348 8.62868 8.5771Z" fill="#FCB831"/>
<path d="M8.75781 8.68317L8.77813 8.69895L8.78411 8.69135C8.7746 8.69163 8.76529 8.68873 8.75781 8.68317" fill="#BB8535"/>
<path d="M9.07031 8.1899L9.07531 8.35703C9.07585 8.36611 9.07957 8.37472 9.08582 8.38136C9.1291 8.43495 9.30917 8.47103 9.52314 8.46467C9.76828 8.45727 9.96557 8.39728 9.96355 8.33066L9.95855 8.16357L9.94421 8.1355L9.07031 8.1899Z" fill="#BB8535"/>
<path d="M9.07033 8.18985C9.0723 8.25659 9.27266 8.30486 9.51784 8.2978C9.76302 8.29075 9.96008 8.23033 9.9581 8.1636C9.95612 8.09686 9.75573 8.04874 9.51055 8.05588C9.26537 8.06301 9.06835 8.12311 9.07033 8.18985Z" fill="#FCB831"/>
<path d="M9.07617 8.35693L9.07693 8.38185L9.0864 8.38101C9.08027 8.37444 9.07665 8.36591 9.07617 8.35693" fill="#BB8535"/>
<path d="M8.66797 7.84458L8.67301 8.01171C8.6735 8.0208 8.67721 8.02942 8.68348 8.03604C8.72671 8.08963 8.90679 8.12572 9.12079 8.11936C9.36594 8.11196 9.56327 8.05197 9.56121 7.98534L9.55621 7.81829L9.54186 7.79022L8.66797 7.84458Z" fill="#BB8535"/>
<path d="M8.66798 7.84451C8.66996 7.91125 8.87032 7.95952 9.1155 7.95247C9.36068 7.94541 9.55774 7.885 9.55576 7.81826C9.55378 7.75152 9.35339 7.70341 9.10825 7.71054C8.8631 7.71767 8.66601 7.77778 8.66798 7.84451Z" fill="#FCB831"/>
<path d="M8.67383 8.01166L8.67459 8.03657L8.68406 8.03574C8.67793 8.02916 8.67431 8.02064 8.67383 8.01166" fill="#BB8535"/>
<path d="M8.59759 8.14893L8.53749 8.30499C8.53438 8.31359 8.53438 8.323 8.53749 8.33159C8.55684 8.39756 8.709 8.49977 8.90881 8.57591C9.13798 8.6632 9.3431 8.68317 9.36718 8.62098L9.42748 8.46507L9.42507 8.43365L8.59759 8.14893Z" fill="#BB8535"/>
<path d="M8.59799 8.14905C8.57407 8.2114 8.7403 8.33265 8.96931 8.4199C9.19832 8.50714 9.4036 8.52719 9.42749 8.46481C9.45137 8.40243 9.2853 8.28122 9.05625 8.19397C8.8272 8.10672 8.62211 8.08671 8.59799 8.14905Z" fill="#FCB831"/>
<path d="M8.5382 8.30505L8.5293 8.32833L8.53839 8.33126C8.53525 8.32282 8.53518 8.31354 8.5382 8.30505" fill="#BB8535"/>
<path d="M7.91992 8.0927L7.939 8.25875C7.94026 8.26779 7.94468 8.2761 7.95149 8.28223C7.9991 8.332 8.18154 8.3529 8.39423 8.3288C8.63805 8.30112 8.82949 8.2247 8.82189 8.15855L8.80285 7.99249L8.78614 7.9657L7.91992 8.0927Z" fill="#BB8535"/>
<path d="M7.92015 8.09261C7.9279 8.15896 8.13148 8.19034 8.37515 8.16266C8.61881 8.13498 8.81017 8.05883 8.80257 7.99244C8.79497 7.92605 8.59124 7.89475 8.34758 7.92243C8.10391 7.95011 7.91239 8.02626 7.92015 8.09261Z" fill="#FCB831"/>
<path d="M7.93945 8.25873L7.94227 8.28349L7.9517 8.28189C7.94504 8.27584 7.94071 8.26764 7.93945 8.25873" fill="#BB8535"/>
<path d="M7.74831 8.24561L7.71729 8.40988C7.71584 8.4189 7.71761 8.42813 7.72229 8.43599C7.75316 8.49744 7.92137 8.57085 8.13176 8.61006C8.37299 8.65489 8.57854 8.63793 8.59083 8.57243L8.62185 8.40815L8.61379 8.37769L7.74831 8.24561Z" fill="#BB8535"/>
<path d="M7.74863 8.24562C7.7363 8.31128 7.92168 8.4008 8.16275 8.44568C8.40382 8.49055 8.60926 8.47371 8.62163 8.40805C8.634 8.34239 8.44861 8.25283 8.20754 8.20803C7.96647 8.16323 7.761 8.17996 7.74863 8.24562Z" fill="#FCB831"/>
<path d="M7.71749 8.40991L7.71289 8.43437L7.72236 8.43567C7.71777 8.42792 7.71604 8.4188 7.71749 8.40991" fill="#BB8535"/>
<path d="M7.99805 8.78694L8.02616 8.95176C8.02794 8.96071 8.03281 8.96876 8.03992 8.97451C8.09033 9.02162 8.27351 9.03265 8.48457 8.99706C8.72653 8.95635 8.91351 8.8696 8.9023 8.80387L8.87419 8.63909L8.85608 8.61322L7.99805 8.78694Z" fill="#BB8535"/>
<path d="M7.99853 8.78688C8.00977 8.85273 8.2149 8.87305 8.4567 8.83222C8.69851 8.79139 8.88541 8.70499 8.87417 8.63914C8.86292 8.57329 8.65772 8.55301 8.41599 8.59381C8.17426 8.6346 7.98728 8.72103 7.99853 8.78688Z" fill="#FCB831"/>
<path d="M8.02734 8.95166L8.03149 8.97623L8.04081 8.9741C8.03384 8.96843 8.02907 8.96048 8.02734 8.95166" fill="#BB8535"/>
<path d="M9.39996 9.15994L9.40496 9.32699C9.40501 9.33611 9.40182 9.34496 9.39596 9.35198C9.35599 9.40815 9.17843 9.4548 8.96447 9.46116C8.71917 9.46841 8.51854 9.42002 8.51672 9.35321L8.51172 9.18631L8.52436 9.15747L9.39996 9.15994Z" fill="#BB8535"/>
<path d="M9.39951 9.16005C9.40149 9.22679 9.20439 9.28678 8.95925 9.29407C8.71411 9.30135 8.51375 9.25304 8.51173 9.18631C8.50972 9.11957 8.70689 9.05954 8.952 9.05229C9.1971 9.04505 9.39761 9.09339 9.39951 9.16005Z" fill="#FCB831"/>
<path d="M9.40531 9.32709L9.40607 9.352L9.39648 9.35178C9.40223 9.34484 9.40535 9.3361 9.40531 9.32709" fill="#BB8535"/>
<path d="M8.64284 8.63647L8.61182 8.80075C8.61037 8.80977 8.61214 8.819 8.61682 8.82685C8.64757 8.88854 8.81578 8.96179 9.02622 9.00093C9.26744 9.0458 9.47299 9.0288 9.48529 8.9633L9.51631 8.79902L9.50832 8.76856L8.64284 8.63647Z" fill="#BB8535"/>
<path d="M8.64316 8.63649C8.63083 8.70215 8.81622 8.79167 9.05729 8.83655C9.29836 8.88142 9.50379 8.86454 9.51616 8.79892C9.52853 8.7333 9.34314 8.6437 9.10207 8.5989C8.861 8.5541 8.65553 8.57083 8.64316 8.63649Z" fill="#FCB831"/>
<path d="M8.61202 8.80072L8.60742 8.82526L8.61689 8.82647C8.6123 8.81873 8.61058 8.80961 8.61202 8.80072" fill="#BB8535"/>
<path d="M8.36635 9.26448L8.24289 9.3779C8.23599 9.3839 8.22719 9.38732 8.21803 9.38754C8.14932 9.39433 7.99732 9.29173 7.8521 9.13536C7.6856 8.95612 7.59071 8.77399 7.63996 8.72877L7.76346 8.61538L7.79367 8.6059L8.36635 9.26448Z" fill="#BB8535"/>
<path d="M8.36757 9.26427C8.31825 9.30961 8.14333 9.20111 7.97694 9.02203C7.81056 8.84295 7.71567 8.66093 7.76499 8.61563C7.81432 8.57033 7.98924 8.6789 8.15566 8.85787C8.32209 9.03684 8.41693 9.21893 8.36757 9.26427Z" fill="#FCB831"/>
<path d="M8.24449 9.37793L8.22517 9.39482L8.21875 9.38744C8.22825 9.38725 8.23737 9.38388 8.24449 9.37793" fill="#BB8535"/>
<path d="M7.90191 8.90383L7.90691 9.07089C7.90696 9.08001 7.90377 9.08885 7.89792 9.09587C7.85794 9.15205 7.68038 9.1987 7.46642 9.20506C7.22112 9.21231 7.0205 9.16392 7.01867 9.09711L7.01367 8.93021L7.02631 8.90137L7.90191 8.90383Z" fill="#BB8535"/>
<path d="M7.90142 8.90401C7.9034 8.97075 7.7063 9.03074 7.46135 9.03783C7.21641 9.04492 7.01566 8.997 7.01369 8.93027C7.01171 8.86353 7.20877 8.8035 7.45391 8.79625C7.69905 8.789 7.89952 8.83735 7.90142 8.90401Z" fill="#FCB831"/>
<path d="M7.90726 9.07111L7.90802 9.09602L7.89844 9.09579C7.90418 9.08885 7.90731 9.08012 7.90726 9.07111" fill="#BB8535"/>
<path d="M8.35894 8.53311L8.36395 8.70016C8.36397 8.70928 8.36079 8.71812 8.35495 8.72514C8.31497 8.78132 8.13742 8.82797 7.92345 8.83433C7.67815 8.84158 7.47753 8.79319 7.47571 8.72638L7.4707 8.55948L7.48334 8.53064L8.35894 8.53311Z" fill="#BB8535"/>
<path d="M8.35849 8.53328C8.36047 8.60002 8.16337 8.66001 7.91823 8.6671C7.67309 8.6742 7.47273 8.62627 7.47072 8.55954C7.4687 8.4928 7.66588 8.43277 7.91098 8.42552C8.15608 8.41828 8.35659 8.46662 8.35849 8.53328Z" fill="#FCB831"/>
<path d="M8.36429 8.70026L8.36506 8.72517L8.35547 8.72494C8.3612 8.718 8.36432 8.70926 8.36429 8.70026Z" fill="#BB8535"/>
<path d="M8.37003 8.83521L8.4394 8.98745C8.44295 8.99585 8.44345 9.00522 8.4408 9.01394C8.42564 9.08099 8.2798 9.19206 8.0848 9.27996C7.86122 9.38063 7.65749 9.41274 7.62988 9.35206L7.56055 9.19977L7.56105 9.16831L8.37003 8.83521Z" fill="#BB8535"/>
<path d="M8.37079 8.83522C8.39852 8.89606 8.23984 9.02695 8.01642 9.1275C7.79299 9.22805 7.58942 9.26032 7.56173 9.19944C7.53404 9.13857 7.69268 9.00775 7.9161 8.90716C8.13953 8.80658 8.3431 8.77435 8.37079 8.83522Z" fill="#FCB831"/>
<path d="M8.43945 8.98743L8.44972 9.01025L8.44086 9.01356C8.44347 9.00495 8.44297 8.9957 8.43945 8.98743" fill="#BB8535"/>
<path d="M8.96682 8.74122L8.95771 8.90812C8.95697 8.91721 8.95306 8.92576 8.94666 8.93229C8.90214 8.98476 8.72122 9.01645 8.50744 9.00492C8.26242 8.99174 8.06676 8.92666 8.07036 8.86027L8.07947 8.69337L8.09452 8.66565L8.96682 8.74122Z" fill="#BB8535"/>
<path d="M8.96697 8.7412C8.96329 8.80771 8.76185 8.85124 8.51694 8.83805C8.27203 8.82487 8.07648 8.76006 8.08013 8.6934C8.08377 8.62674 8.28521 8.58333 8.52993 8.59655C8.77464 8.60977 8.97058 8.67447 8.96697 8.7412Z" fill="#FCB831"/>
<path d="M8.95811 8.90808L8.95674 8.933L8.94727 8.93193C8.95355 8.92549 8.95738 8.91705 8.95811 8.90808Z" fill="#BB8535"/>
<path d="M9.14734 8.88367L9.18801 9.04586C9.19003 9.05477 9.18882 9.06409 9.1846 9.0722C9.15746 9.13535 8.99406 9.2187 8.78637 9.27013C8.54829 9.3292 8.34208 9.32438 8.32583 9.25976L8.28516 9.09756L8.29132 9.06672L9.14734 8.88367Z" fill="#BB8535"/>
<path d="M9.14772 8.88385C9.16397 8.94865 8.98413 9.04901 8.74631 9.10804C8.5085 9.16706 8.30225 9.16244 8.28616 9.09763C8.27007 9.03282 8.4496 8.93246 8.68757 8.87344C8.92553 8.81441 9.13147 8.81904 9.14772 8.88385Z" fill="#FCB831"/>
<path d="M9.18874 9.0459L9.1949 9.07005L9.18555 9.07188C9.18961 9.06386 9.19074 9.05467 9.18874 9.0459Z" fill="#BB8535"/>
<path d="M5.33594 9.0432L5.46603 9.14911C5.47326 9.15473 5.48226 9.15764 5.49143 9.15732C5.56045 9.16002 5.70598 9.04864 5.84165 8.88397C5.99714 8.69506 6.08094 8.50776 6.02906 8.46555L5.89896 8.35964L5.86829 8.35193L5.33594 9.0432Z" fill="#BB8535"/>
<path d="M5.33669 9.04304C5.38865 9.08545 5.55674 8.96671 5.71215 8.77806C5.86757 8.58942 5.95136 8.4022 5.8994 8.35979C5.84744 8.31738 5.67935 8.43609 5.52394 8.62473C5.36852 8.81338 5.28473 9.00075 5.33669 9.04304Z" fill="#FCB831"/>
<path d="M5.4668 9.14911L5.48711 9.1649L5.4931 9.15729C5.48359 9.15756 5.47428 9.15467 5.4668 9.14911" fill="#BB8535"/>
<path d="M5.7793 8.65586L5.7843 8.82299C5.78479 8.83211 5.7885 8.84077 5.79477 8.84744C5.838 8.90099 6.01808 8.93704 6.23204 8.93071C6.47726 8.92323 6.67456 8.86324 6.67254 8.79662L6.66754 8.62957L6.65319 8.6015L5.7793 8.65586Z" fill="#BB8535"/>
<path d="M5.77931 8.65583C5.78129 8.72256 5.98164 8.77083 6.22682 8.76378C6.472 8.75672 6.66906 8.69631 6.66709 8.62957C6.66511 8.56283 6.46471 8.51472 6.21957 8.52181C5.97443 8.52891 5.77733 8.58909 5.77931 8.65583Z" fill="#FCB831"/>
<path d="M5.78418 8.82294L5.78494 8.84785L5.79445 8.84702C5.78829 8.84046 5.78465 8.83193 5.78418 8.82294" fill="#BB8535"/>
<path d="M5.30658 8.61487L5.24648 8.77093C5.24336 8.77953 5.24336 8.78894 5.24648 8.79754C5.26583 8.86346 5.41798 8.96571 5.61779 9.04185C5.84696 9.12914 6.05209 9.14911 6.07624 9.08692L6.13646 8.93101L6.13406 8.89959L5.30658 8.61487Z" fill="#BB8535"/>
<path d="M5.30698 8.61497C5.28305 8.67735 5.44929 8.79861 5.6783 8.88581C5.90731 8.97302 6.11259 8.99311 6.13647 8.93073C6.16036 8.86835 5.99432 8.74714 5.76523 8.65993C5.53614 8.57272 5.3311 8.55263 5.30698 8.61497Z" fill="#FCB831"/>
<path d="M5.24722 8.771L5.23828 8.79424L5.24737 8.79721C5.24427 8.78875 5.24421 8.77948 5.24722 8.771Z" fill="#BB8535"/>
<path d="M4.45729 8.71161L4.42627 8.87589C4.42482 8.88489 4.42659 8.89411 4.43128 8.90195C4.46203 8.96364 4.63024 9.03689 4.84067 9.07602C5.0819 9.1209 5.28745 9.10393 5.29978 9.03843L5.3308 8.87415L5.32281 8.84369L4.45729 8.71161Z" fill="#BB8535"/>
<path d="M4.45761 8.71162C4.44528 8.77728 4.63067 8.8668 4.87174 8.91168C5.11281 8.95656 5.31824 8.93971 5.33061 8.87405C5.34298 8.80839 5.1576 8.71883 4.91653 8.67403C4.67546 8.62923 4.46998 8.64597 4.45761 8.71162Z" fill="#FCB831"/>
<path d="M4.42648 8.87592L4.42188 8.90045L4.43135 8.90167C4.42675 8.89392 4.42503 8.88481 4.42648 8.87592" fill="#BB8535"/>
<path d="M4.70703 9.25283L4.73514 9.41761C4.73692 9.42656 4.74179 9.43462 4.74891 9.44039C4.79932 9.4875 4.98253 9.49853 5.19355 9.46291C5.43555 9.42223 5.62249 9.33549 5.61129 9.26975L5.58317 9.10497L5.56506 9.0791L4.70703 9.25283Z" fill="#BB8535"/>
<path d="M4.70751 9.25277C4.71875 9.31866 4.92388 9.33894 5.16569 9.29815C5.40749 9.25736 5.59439 9.17092 5.58315 9.10504C5.5719 9.03915 5.3667 9.01891 5.12497 9.0597C4.88324 9.10049 4.6963 9.18696 4.70751 9.25277Z" fill="#FCB831"/>
<path d="M4.73535 9.4176L4.7395 9.44222L4.74882 9.44005C4.74184 9.43437 4.73707 9.42643 4.73535 9.4176" fill="#BB8535"/>
<path d="M6.28756 8.64351L6.26953 8.80968C6.26828 8.81872 6.26389 8.82704 6.25712 8.83319C6.20962 8.8832 6.02726 8.90506 5.81446 8.882C5.57048 8.85555 5.37865 8.78014 5.38594 8.71387L5.40413 8.54774L5.42069 8.52075L6.28756 8.64351Z" fill="#BB8535"/>
<path d="M6.28645 8.64342C6.27919 8.70977 6.07562 8.7422 5.8318 8.71579C5.58797 8.68938 5.39631 8.61408 5.40352 8.54769C5.41073 8.4813 5.61434 8.44892 5.85824 8.47533C6.10214 8.50173 6.29373 8.57703 6.28645 8.64342Z" fill="#FCB831"/>
<path d="M6.26882 8.80963L6.26608 8.8344L6.25684 8.83284C6.26342 8.82674 6.26766 8.81853 6.26882 8.80963Z" fill="#BB8535"/>
<path d="M6.1875 8.90861L6.21561 9.07343C6.21738 9.08238 6.22225 9.09043 6.22938 9.09618C6.27979 9.14329 6.463 9.15431 6.67402 9.11873C6.91602 9.07802 7.10296 8.99123 7.09175 8.92554L7.06364 8.76076L7.04553 8.73492L6.1875 8.90861Z" fill="#BB8535"/>
<path d="M6.18798 8.90853C6.19926 8.97442 6.40435 8.99469 6.64615 8.95387C6.88796 8.91304 7.07486 8.82664 7.06362 8.76079C7.05237 8.69494 6.84717 8.67466 6.60548 8.71545C6.36379 8.75624 6.17677 8.84271 6.18798 8.90853Z" fill="#FCB831"/>
<path d="M6.21582 9.07343L6.21997 9.098L6.22929 9.09587C6.22232 9.09018 6.21756 9.08225 6.21582 9.07343" fill="#BB8535"/>
<path d="M7.58941 9.28164L7.59441 9.4487C7.59445 9.45783 7.59127 9.46668 7.58542 9.47372C7.54548 9.52985 7.36788 9.5765 7.15392 9.58286C6.90862 9.59011 6.708 9.54173 6.70617 9.47514L6.70117 9.30801L6.71385 9.27917L7.58941 9.28164Z" fill="#BB8535"/>
<path d="M7.5899 9.28171C7.59188 9.34845 7.39478 9.40844 7.14983 9.41573C6.90488 9.42301 6.70414 9.37474 6.70216 9.30797C6.70019 9.24119 6.89724 9.1812 7.14239 9.17399C7.38753 9.16678 7.588 9.21505 7.5899 9.28171Z" fill="#FCB831"/>
<path d="M7.59476 9.44879L7.59552 9.47371L7.58594 9.47348C7.59168 9.46654 7.59481 9.4578 7.59476 9.44879" fill="#BB8535"/>
<path d="M6.83229 8.75812L6.80127 8.9224C6.79982 8.9314 6.80159 8.94062 6.80628 8.94846C6.83703 9.01015 7.00524 9.0834 7.21567 9.12257C7.4569 9.16741 7.66245 9.15044 7.67474 9.08494L7.70576 8.92066L7.6977 8.8902L6.83229 8.75812Z" fill="#BB8535"/>
<path d="M6.83262 8.75819C6.82025 8.82374 7.00567 8.91341 7.24674 8.95829C7.48781 9.00317 7.69321 8.98632 7.70558 8.92066C7.71795 8.855 7.5326 8.7654 7.29153 8.7206C7.05046 8.6758 6.84499 8.69254 6.83262 8.75819Z" fill="#FCB831"/>
<path d="M6.80148 8.92242L6.79688 8.94696L6.80635 8.94818C6.80177 8.94042 6.80005 8.93131 6.80148 8.92242" fill="#BB8535"/>
<path d="M6.5558 9.3862L6.43234 9.49963C6.42544 9.50563 6.41665 9.50904 6.40748 9.50927C6.33873 9.51605 6.18673 9.41346 6.04156 9.25708C5.87505 9.07785 5.78017 8.89572 5.82941 8.85049L5.95291 8.73711L5.98312 8.72766L6.5558 9.3862Z" fill="#BB8535"/>
<path d="M6.55606 9.38603C6.50674 9.43133 6.33182 9.32284 6.16543 9.1438C5.99905 8.96475 5.90412 8.7827 5.95349 8.7374C6.00285 8.6921 6.17769 8.80067 6.34411 8.97959C6.51054 9.15852 6.60542 9.34069 6.55606 9.38603Z" fill="#FCB831"/>
<path d="M6.43394 9.49957L6.41463 9.51646L6.4082 9.50908C6.4177 9.5089 6.42682 9.50553 6.43394 9.49957" fill="#BB8535"/>
<path d="M6.09136 9.0256L6.09641 9.19265C6.09642 9.20177 6.09322 9.21061 6.08737 9.21764C6.04743 9.27381 5.86984 9.32046 5.65587 9.32682C5.41058 9.33407 5.20995 9.28569 5.20813 9.21887L5.20312 9.05197L5.2158 9.02313L6.09136 9.0256Z" fill="#BB8535"/>
<path d="M6.09088 9.02571C6.09285 9.09245 5.89576 9.15244 5.65081 9.15973C5.40586 9.16701 5.20512 9.11871 5.20314 9.05197C5.20116 8.98523 5.39822 8.9252 5.6434 8.91796C5.88858 8.91071 6.08898 8.95905 6.09088 9.02571Z" fill="#FCB831"/>
<path d="M6.09574 9.19275L6.0965 9.21767L6.08691 9.21744C6.09265 9.21049 6.09577 9.20176 6.09574 9.19275Z" fill="#BB8535"/>
<path d="M6.5484 8.65481L6.5534 8.82187C6.55344 8.831 6.55025 8.83985 6.5444 8.84689C6.50446 8.90302 6.32687 8.94967 6.1129 8.95603C5.86761 8.96328 5.66698 8.9149 5.66516 8.84831L5.66016 8.68118L5.6728 8.65234L6.5484 8.65481Z" fill="#BB8535"/>
<path d="M6.54791 8.65493C6.54988 8.72166 6.35279 8.78165 6.10784 8.78894C5.86289 8.79623 5.66215 8.74796 5.66017 8.68118C5.65819 8.61441 5.85525 8.55442 6.10039 8.54717C6.34554 8.53992 6.54601 8.58827 6.54791 8.65493Z" fill="#FCB831"/>
<path d="M6.55375 8.82202L6.55451 8.84694L6.54492 8.84671C6.55066 8.83977 6.55378 8.83103 6.55375 8.82202Z" fill="#BB8535"/>
<path d="M6.55952 8.95685L6.62889 9.10914C6.63245 9.11753 6.63294 9.1269 6.63029 9.13562C6.61509 9.20263 6.46929 9.3137 6.27425 9.40165C6.05071 9.50231 5.84698 9.53446 5.81937 9.47374L5.75 9.32149L5.7505 9.28999L6.55952 8.95685Z" fill="#BB8535"/>
<path d="M6.55927 8.95697C6.587 9.01781 6.42833 9.1487 6.2049 9.24925C5.98147 9.3498 5.77794 9.38207 5.75022 9.32119C5.72249 9.26031 5.88116 9.1295 6.10459 9.02891C6.32802 8.92832 6.53159 8.89613 6.55927 8.95697Z" fill="#FCB831"/>
<path d="M6.62891 9.10913L6.63918 9.13196L6.63028 9.13526C6.63289 9.12666 6.63241 9.11741 6.62891 9.10913" fill="#BB8535"/>
<path d="M7.15628 8.86292L7.14716 9.02978C7.14645 9.03889 7.14254 9.04746 7.13611 9.05399C7.0916 9.10647 6.91067 9.13816 6.6969 9.12663C6.45187 9.1134 6.25621 9.04836 6.25981 8.98197L6.26893 8.81507L6.28401 8.78735L7.15628 8.86292Z" fill="#BB8535"/>
<path d="M7.15643 8.86291C7.15278 8.92942 6.9513 8.97294 6.70643 8.95976C6.46156 8.94657 6.26594 8.8818 6.26958 8.8151C6.27323 8.7484 6.47467 8.70503 6.71938 8.71825C6.9641 8.73148 7.16007 8.79621 7.15643 8.86291Z" fill="#FCB831"/>
<path d="M7.14756 9.02979L7.14619 9.0547L7.13672 9.05364C7.14301 9.0472 7.14684 9.03876 7.14756 9.02979Z" fill="#BB8535"/>
<path d="M7.33679 9.00543L7.37751 9.16763C7.37948 9.17654 7.37826 9.18585 7.37406 9.19396C7.34691 9.25715 7.18355 9.34047 6.97587 9.3919C6.73774 9.45096 6.53153 9.44614 6.51529 9.38153L6.47461 9.21933L6.48077 9.18849L7.33679 9.00543Z" fill="#BB8535"/>
<path d="M7.33735 9.00549C7.35359 9.0703 7.17375 9.17065 6.93594 9.22972C6.69813 9.28878 6.49188 9.28408 6.47563 9.21931C6.45938 9.15454 6.63907 9.05411 6.87704 8.99508C7.11501 8.93605 7.3211 8.94068 7.33735 9.00549Z" fill="#FCB831"/>
<path d="M7.3782 9.1676L7.38436 9.1918L7.375 9.19358C7.37905 9.18556 7.38018 9.17637 7.3782 9.1676" fill="#BB8535"/>
<path d="M7.56836 9.31591L7.69841 9.42182C7.70566 9.42743 7.71467 9.43034 7.72385 9.43003C7.79287 9.43273 7.9384 9.32134 8.07404 9.15664C8.22957 8.96773 8.31336 8.78047 8.26148 8.73825L8.13139 8.63234L8.10068 8.62463L7.56836 9.31591Z" fill="#BB8535"/>
<path d="M7.56813 9.31576C7.62009 9.35817 7.78823 9.23942 7.9436 9.05078C8.09898 8.86213 8.18285 8.67487 8.13089 8.63258C8.07893 8.59029 7.9108 8.70888 7.75538 8.89752C7.59997 9.08617 7.51617 9.27346 7.56813 9.31576Z" fill="#FCB831"/>
<path d="M7.69727 9.42181L7.71762 9.4376L7.72357 9.42999C7.71406 9.43027 7.70475 9.42738 7.69727 9.42181" fill="#BB8535"/>
<path d="M7.53902 8.88757L7.47891 9.04364C7.47578 9.05223 7.47578 9.06165 7.47891 9.07024C7.49826 9.13617 7.65042 9.23841 7.85023 9.31456C8.07944 9.40185 8.28472 9.42182 8.30868 9.35963L8.3689 9.20372L8.36649 9.17229L7.53902 8.88757Z" fill="#BB8535"/>
<path d="M7.5394 8.88766C7.51547 8.95 7.68171 9.07125 7.91072 9.15846C8.13973 9.24567 8.34501 9.26576 8.36889 9.20341C8.39278 9.14107 8.2267 9.01982 7.99765 8.93257C7.7686 8.84532 7.56352 8.82528 7.5394 8.88766Z" fill="#FCB831"/>
<path d="M7.47769 9.0437L7.46875 9.06694L7.47788 9.06991C7.47474 9.06147 7.47468 9.05219 7.47769 9.0437" fill="#BB8535"/>
<path d="M6.68874 8.98431L6.65772 9.14859C6.65627 9.15759 6.65804 9.16682 6.66272 9.17466C6.69347 9.23634 6.86168 9.30959 7.07212 9.34873C7.31334 9.3936 7.51889 9.37664 7.53119 9.31114L7.56221 9.14686L7.55414 9.1164L6.68874 8.98431Z" fill="#BB8535"/>
<path d="M6.68906 8.98439C6.67673 9.05005 6.86211 9.13957 7.10318 9.18445C7.34425 9.22932 7.54969 9.21248 7.56206 9.14682C7.57443 9.08116 7.38904 8.9916 7.14797 8.9468C6.9069 8.902 6.70143 8.91873 6.68906 8.98439Z" fill="#FCB831"/>
<path d="M6.65792 9.14856L6.65332 9.1731L6.66279 9.17431C6.65822 9.16656 6.65649 9.15745 6.65792 9.14856" fill="#BB8535"/>
<path d="M6.6084 9.30306L6.63651 9.46784C6.63829 9.47679 6.64316 9.48485 6.65028 9.49062C6.70069 9.53774 6.8839 9.54876 7.09492 9.51314C7.33692 9.47246 7.52386 9.38572 7.51265 9.31998L7.48454 9.1552L7.46643 9.12933L6.6084 9.30306Z" fill="#BB8535"/>
<path d="M6.60888 9.303C6.62016 9.36885 6.82525 9.38917 7.06705 9.34834C7.30886 9.30751 7.49576 9.22111 7.48451 9.15526C7.47327 9.08941 7.26807 9.06913 7.02638 9.10992C6.78469 9.15071 6.59767 9.23715 6.60888 9.303Z" fill="#FCB831"/>
<path d="M6.63672 9.46783L6.64087 9.49245L6.65019 9.49028C6.64321 9.48461 6.63844 9.47666 6.63672 9.46783" fill="#BB8535"/>
<path d="M7.25417 9.15253L7.22315 9.31681C7.2217 9.32582 7.22347 9.33505 7.22815 9.34291C7.2589 9.40459 7.42711 9.47785 7.63755 9.51698C7.87877 9.56182 8.08432 9.54485 8.09661 9.47935L8.12763 9.31507L8.11957 9.28461L7.25417 9.15253Z" fill="#BB8535"/>
<path d="M7.25253 9.15266C7.2402 9.21832 7.42559 9.30784 7.66666 9.35272C7.90773 9.3976 8.11317 9.38075 8.12554 9.31509C8.1379 9.24943 7.95252 9.15987 7.71145 9.11507C7.47038 9.07027 7.2649 9.08701 7.25253 9.15266Z" fill="#FCB831"/>
<path d="M7.2214 9.31689L7.2168 9.34135L7.22627 9.34265C7.22169 9.33489 7.21997 9.32578 7.2214 9.31689" fill="#BB8535"/>
<path d="M5.66256 8.60658L5.64453 8.77275C5.6433 8.78179 5.63892 8.79011 5.63216 8.79627C5.58462 8.84627 5.40226 8.86813 5.18946 8.84504C4.94548 8.81863 4.75365 8.74322 4.76094 8.67694L4.77913 8.51081L4.79569 8.48383L5.66256 8.60658Z" fill="#BB8535"/>
<path d="M5.66238 8.60649C5.65513 8.67285 5.45156 8.70527 5.20774 8.67886C4.96391 8.65245 4.77224 8.57715 4.7795 8.51076C4.78675 8.44437 4.99032 8.41199 5.23418 8.4384C5.47804 8.46481 5.66967 8.5401 5.66238 8.60649Z" fill="#FCB831"/>
<path d="M5.64382 8.77271L5.64108 8.79747L5.63184 8.79591C5.63841 8.78981 5.64265 8.7816 5.64382 8.77271Z" fill="#BB8535"/>
<path d="M5.05426 8.46603L5.05926 8.63308C5.0593 8.64221 5.05611 8.65107 5.05026 8.65811C5.01028 8.71424 4.83273 8.76089 4.61876 8.76725C4.37347 8.7745 4.17284 8.72611 4.17102 8.65953L4.16602 8.4924L4.1787 8.46356L5.05426 8.46603Z" fill="#BB8535"/>
<path d="M5.05377 8.46614C5.05574 8.53288 4.85865 8.59287 4.6137 8.59996C4.36875 8.60706 4.16801 8.55914 4.16603 8.4924C4.16405 8.42566 4.36111 8.36563 4.60625 8.35839C4.85139 8.35114 5.05187 8.39948 5.05377 8.46614Z" fill="#FCB831"/>
<path d="M5.05961 8.63318L5.06037 8.6581L5.05078 8.65787C5.05652 8.65092 5.05964 8.64219 5.05961 8.63318Z" fill="#BB8535"/>
<path d="M5.52339 8.39728L5.59272 8.54957C5.59631 8.55795 5.59682 8.56733 5.59416 8.57605C5.57896 8.64306 5.43316 8.75417 5.23812 8.84208C5.01457 8.94274 4.81085 8.97489 4.78324 8.91417L4.71387 8.76192L4.71437 8.73042L5.52339 8.39728Z" fill="#BB8535"/>
<path d="M5.52313 8.39742C5.55086 8.45822 5.39219 8.58911 5.16876 8.6897C4.94533 8.79028 4.74176 8.82251 4.71407 8.76164C4.68639 8.70076 4.84502 8.56995 5.06845 8.46936C5.29187 8.36877 5.49545 8.33654 5.52313 8.39742Z" fill="#FCB831"/>
<path d="M5.59277 8.54956L5.60304 8.57239L5.59418 8.57569C5.59679 8.56709 5.59629 8.55784 5.59277 8.54956" fill="#BB8535"/>
<path d="M4.74273 8.84384L4.74773 9.01089C4.74779 9.02003 4.74461 9.02889 4.73874 9.03591C4.6988 9.09205 4.52121 9.1387 4.30724 9.14506C4.06194 9.15231 3.86132 9.10392 3.85949 9.03711L3.85449 8.87021L3.86717 8.84137L4.74273 8.84384Z" fill="#BB8535"/>
<path d="M4.74228 8.84389C4.74426 8.91063 4.54712 8.97062 4.30202 8.9779C4.05692 8.98519 3.85652 8.93688 3.85451 8.87015C3.85249 8.80341 4.04967 8.74338 4.29477 8.73613C4.53987 8.72888 4.74038 8.77723 4.74228 8.84389Z" fill="#FCB831"/>
<path d="M4.74711 9.01099L4.74787 9.0359L4.73828 9.03567C4.74406 9.02875 4.74718 9.02 4.74711 9.01099Z" fill="#BB8535"/>
<path d="M3.98464 8.32025L3.95362 8.48453C3.95217 8.49354 3.95394 8.50278 3.95862 8.51063C3.98937 8.57232 4.15758 8.64557 4.36802 8.6847C4.60924 8.72958 4.81479 8.71258 4.82708 8.64707L4.8581 8.4828L4.85004 8.45234L3.98464 8.32025Z" fill="#BB8535"/>
<path d="M3.98496 8.32033C3.97263 8.38599 4.15801 8.47551 4.39908 8.52038C4.64015 8.56526 4.84559 8.54841 4.85796 8.48276C4.87033 8.4171 4.68494 8.32754 4.44387 8.28274C4.2028 8.23794 3.99733 8.25467 3.98496 8.32033Z" fill="#FCB831"/>
<path d="M3.95382 8.48456L3.94922 8.50909L3.95869 8.51031C3.95411 8.50256 3.95239 8.49345 3.95382 8.48456" fill="#BB8535"/>
<path d="M7.57815 9.25739L7.56904 9.42429C7.56832 9.43339 7.56441 9.44194 7.55799 9.44846C7.51347 9.50094 7.33254 9.53263 7.11877 9.5211C6.87379 9.50791 6.67808 9.44283 6.68169 9.37644L6.6908 9.20954L6.70589 9.18182L7.57815 9.25739Z" fill="#BB8535"/>
<path d="M7.57732 9.25725C7.57368 9.32375 7.3722 9.36728 7.12729 9.35409C6.88238 9.34091 6.68683 9.27614 6.69048 9.20944C6.69412 9.14274 6.89557 9.09941 7.14028 9.11259C7.385 9.12578 7.58097 9.19055 7.57732 9.25725Z" fill="#FCB831"/>
<path d="M7.56944 9.42426L7.56807 9.44913L7.55859 9.44811C7.56489 9.44167 7.56873 9.43323 7.56944 9.42426" fill="#BB8535"/>
<path d="M9.43945 8.57293L9.56955 8.67883C9.57678 8.68445 9.58577 8.68736 9.59494 8.68705C9.66397 8.68974 9.80949 8.57836 9.94517 8.4137C10.1007 8.22478 10.1845 8.03749 10.1326 7.99527L10.0025 7.88936L9.97181 7.88165L9.43945 8.57293Z" fill="#BB8535"/>
<path d="M9.43923 8.57271C9.49119 8.61512 9.65928 8.49637 9.81469 8.30772C9.97011 8.11908 10.0539 7.93186 10.0019 7.88945C9.94998 7.84704 9.78189 7.96575 9.62648 8.15443C9.47106 8.34312 9.38727 8.53041 9.43923 8.57271Z" fill="#FCB831"/>
<path d="M9.56836 8.67883L9.58872 8.69462L9.59466 8.68701C9.58515 8.68729 9.57584 8.68439 9.56836 8.67883" fill="#BB8535"/>
<path d="M9.41009 8.14453L9.34999 8.3006C9.34688 8.30919 9.34688 8.3186 9.34999 8.3272C9.36934 8.39317 9.5215 8.49537 9.72131 8.57152C9.95048 8.6588 10.1556 8.67877 10.1798 8.61659L10.24 8.46067L10.2376 8.42925L9.41009 8.14453Z" fill="#BB8535"/>
<path d="M9.40854 8.14468C9.38462 8.20702 9.55085 8.32827 9.77986 8.41548C10.0089 8.50269 10.2141 8.52278 10.238 8.46043C10.2619 8.39809 10.0959 8.27684 9.86679 8.18959C9.63771 8.10234 9.43266 8.0823 9.40854 8.14468Z" fill="#FCB831"/>
<path d="M9.34878 8.30072L9.33984 8.324L9.34894 8.32693C9.34583 8.31848 9.34578 8.30921 9.34878 8.30072Z" fill="#BB8535"/>
<path d="M8.55887 8.24127L8.52785 8.40555C8.52638 8.41455 8.52814 8.42377 8.53281 8.43161C8.5636 8.4933 8.73181 8.56655 8.94224 8.60572C9.18343 8.65056 9.38902 8.6336 9.40131 8.56809L9.43233 8.40382L9.42435 8.37336L8.55887 8.24127Z" fill="#BB8535"/>
<path d="M8.55917 8.24129C8.54684 8.30694 8.73223 8.39647 8.9733 8.44134C9.21437 8.48622 9.41981 8.46937 9.43218 8.40372C9.44455 8.33806 9.25916 8.2485 9.01809 8.2037C8.77702 8.1589 8.57154 8.17563 8.55917 8.24129Z" fill="#FCB831"/>
<path d="M8.52804 8.40558L8.52344 8.43011L8.53291 8.43133C8.52832 8.42358 8.52659 8.41447 8.52804 8.40558" fill="#BB8535"/>
<path d="M8.80859 8.78255L8.83671 8.94733C8.83849 8.95629 8.84336 8.96435 8.85047 8.97012C8.90088 9.01723 9.0841 9.02825 9.29512 8.99267C9.53712 8.95196 9.72405 8.86521 9.71285 8.79948L9.68474 8.6347L9.66663 8.60883L8.80859 8.78255Z" fill="#BB8535"/>
<path d="M8.80907 8.78243C8.82032 8.84828 9.02544 8.8686 9.26725 8.82777C9.50906 8.78694 9.69595 8.70054 9.68471 8.63469C9.67346 8.56884 9.46826 8.54856 9.22657 8.58935C8.98488 8.63014 8.79787 8.71658 8.80907 8.78243Z" fill="#FCB831"/>
<path d="M8.83789 8.94727L8.84204 8.97188L8.85136 8.96971C8.84438 8.96404 8.83961 8.95609 8.83789 8.94727" fill="#BB8535"/>
<path d="M10.1929 8.55526L10.1979 8.72232C10.198 8.73145 10.1948 8.7403 10.1889 8.74734C10.149 8.80347 9.9714 8.85012 9.75744 8.85649C9.51214 8.86373 9.31151 8.81535 9.30969 8.74877L9.30469 8.58163L9.31733 8.5528L10.1929 8.55526Z" fill="#BB8535"/>
<path d="M10.1925 8.55544C10.1945 8.62218 9.99736 8.68217 9.75222 8.68945C9.50707 8.69674 9.30672 8.64843 9.3047 8.58169C9.30269 8.51496 9.49986 8.45493 9.74496 8.44768C9.99007 8.44043 10.1906 8.48878 10.1925 8.55544Z" fill="#FCB831"/>
<path d="M10.1983 8.72241L10.199 8.74733L10.1895 8.7471C10.1952 8.74016 10.1983 8.73142 10.1983 8.72241" fill="#BB8535"/>
<path d="M10.663 8.48657L10.7324 8.63886C10.736 8.64726 10.7365 8.65663 10.7338 8.66535C10.7186 8.73235 10.5728 8.84343 10.3778 8.93137C10.1542 9.03203 9.95049 9.06419 9.92289 9.00347L9.85352 8.85122L9.85402 8.81972L10.663 8.48657Z" fill="#BB8535"/>
<path d="M10.6618 8.48669C10.6895 8.54753 10.5309 8.67842 10.3074 8.77897C10.084 8.87952 9.88048 8.91179 9.85275 8.85091C9.82503 8.79004 9.9837 8.65922 10.2071 8.55864C10.4306 8.45805 10.6341 8.42586 10.6618 8.48669Z" fill="#FCB831"/>
<path d="M10.7324 8.63885L10.7427 8.66168L10.7338 8.66499C10.7364 8.65638 10.7359 8.64714 10.7324 8.63885" fill="#BB8535"/>
<path d="M8.47852 8.55995L8.50663 8.72473C8.50841 8.73369 8.51328 8.74175 8.52039 8.74752C8.5708 8.79463 8.75402 8.80566 8.96504 8.77004C9.207 8.72936 9.39398 8.64261 9.38273 8.57688L9.35466 8.4121L9.33655 8.38623L8.47852 8.55995Z" fill="#BB8535"/>
<path d="M8.47899 8.55989C8.49024 8.62574 8.69536 8.64606 8.93717 8.60523C9.17898 8.5644 9.36584 8.47801 9.35463 8.41215C9.34343 8.3463 9.13818 8.32603 8.89646 8.36682C8.65473 8.40761 8.46779 8.49404 8.47899 8.55989Z" fill="#FCB831"/>
<path d="M8.50781 8.72485L8.51196 8.74947L8.52128 8.7473C8.5143 8.74163 8.50953 8.73368 8.50781 8.72485" fill="#BB8535"/>
<path d="M9.88043 8.93307L9.88543 9.10012C9.88547 9.10924 9.88229 9.11809 9.87643 9.12511C9.83646 9.18128 9.6589 9.22793 9.44494 9.23429C9.19964 9.24154 8.99901 9.19316 8.99719 9.12634L8.99219 8.95944L9.00483 8.9306L9.88043 8.93307Z" fill="#BB8535"/>
<path d="M9.88193 8.93325C9.88391 8.99998 9.68681 9.05997 9.44186 9.06707C9.19692 9.07416 8.99617 9.02624 8.99416 8.9595C8.99214 8.89276 9.18932 8.83274 9.43442 8.82549C9.67952 8.81824 9.88003 8.86659 9.88193 8.93325Z" fill="#FCB831"/>
<path d="M9.88578 9.10028L9.88654 9.1252L9.87695 9.12497C9.8827 9.11803 9.88582 9.10929 9.88578 9.10028" fill="#BB8535"/>
<path d="M9.12331 8.40961L9.09229 8.57389C9.09084 8.5829 9.09261 8.59213 9.09729 8.59999C9.12804 8.66167 9.29625 8.73493 9.50669 8.77406C9.74791 8.8189 9.95346 8.80193 9.96579 8.73643L9.99681 8.57215L9.98883 8.54169L9.12331 8.40961Z" fill="#BB8535"/>
<path d="M9.12363 8.40962C9.1113 8.47528 9.29668 8.5648 9.53775 8.60968C9.77882 8.65456 9.98426 8.63767 9.99663 8.57205C10.009 8.50643 9.82361 8.41683 9.58254 8.37203C9.34147 8.32723 9.136 8.34396 9.12363 8.40962Z" fill="#FCB831"/>
<path d="M9.09249 8.57385L9.08789 8.59831L9.09736 8.59961C9.09277 8.59186 9.09104 8.58274 9.09249 8.57385" fill="#BB8535"/>
<path d="M9.44924 8.51429L9.44013 8.68119C9.43941 8.69028 9.4355 8.69884 9.42908 8.70536C9.38457 8.75783 9.20364 8.78952 8.98987 8.778C8.74484 8.76481 8.54918 8.69973 8.55278 8.63334L8.5619 8.46644L8.57694 8.43872L9.44924 8.51429Z" fill="#BB8535"/>
<path d="M9.44744 8.51427C9.4438 8.58077 9.24232 8.6243 8.99741 8.61111C8.7525 8.59793 8.55695 8.53316 8.5606 8.46646C8.56424 8.39976 8.76568 8.35643 9.0104 8.36961C9.25511 8.3828 9.45105 8.44757 9.44744 8.51427Z" fill="#FCB831"/>
<path d="M9.43858 8.68121L9.43721 8.70609L9.42773 8.70507C9.43403 8.69863 9.43787 8.69019 9.43858 8.68121" fill="#BB8535"/>
<path d="M9.62781 8.65686L9.66848 8.81906C9.6705 8.82796 9.66929 8.83728 9.66507 8.84539C9.63793 8.90854 9.47453 8.99189 9.26688 9.04329C9.02876 9.10235 8.82255 9.09761 8.8063 9.03295L8.76562 8.87076L8.77179 8.83991L9.62781 8.65686Z" fill="#BB8535"/>
<path d="M9.62819 8.65692C9.64444 8.72173 9.46459 8.82208 9.22682 8.88111C8.98905 8.94013 8.78272 8.93551 8.76663 8.8707C8.75054 8.80589 8.93007 8.70553 9.16804 8.64651C9.406 8.58748 9.61194 8.59211 9.62819 8.65692Z" fill="#FCB831"/>
<path d="M9.66921 8.81903L9.67537 8.84319L9.66602 8.84501C9.67008 8.83699 9.67121 8.8278 9.66921 8.81903Z" fill="#BB8535"/>
<path d="M9.41143 9.21197L9.3934 9.3781C9.39218 9.38716 9.38779 9.3955 9.38099 9.40165C9.33364 9.45177 9.15128 9.47348 8.93848 9.45042C8.6945 9.42401 8.50268 9.34856 8.50997 9.28233L8.52815 9.11616L8.54471 9.08917L9.41143 9.21197Z" fill="#BB8535"/>
<path d="M9.41238 9.2119C9.40513 9.27833 9.20156 9.31068 8.95774 9.28427C8.71391 9.25786 8.52224 9.18256 8.5295 9.11617C8.53675 9.04978 8.74032 9.0174 8.98418 9.04381C9.22804 9.07022 9.41967 9.14551 9.41238 9.2119Z" fill="#FCB831"/>
<path d="M9.39284 9.37811L9.3901 9.40292L9.38086 9.40136C9.38744 9.39524 9.39168 9.38702 9.39284 9.37811" fill="#BB8535"/>
<path d="M4.03722 8.85654C4.17408 8.99144 4.35153 9.07818 4.54255 9.10356C4.54255 9.10356 6.29382 9.26417 7.67297 9.1706C7.67297 9.1706 10.2142 9.14523 10.5815 8.67468L10.9012 8.86938L10.8483 9.08501C10.8483 9.08501 9.70176 9.71953 6.94956 9.69154C4.19736 9.66355 6.8869 9.70673 6.8869 9.70673C6.8869 9.70673 4.14219 9.63564 3.77506 9.28588C3.77506 9.28588 3.53782 9.11566 4.03726 8.85654" fill="#6D899D"/>
<path d="M7.21929 17.7129L7.2243 17.88C7.22434 17.8891 7.22116 17.898 7.2153 17.905C7.17536 17.9612 6.99777 18.0078 6.7838 18.0141C6.53851 18.0214 6.33788 17.973 6.33606 17.9064L6.33105 17.7393L6.34373 17.7104L7.21929 17.7129Z" fill="#BB8535"/>
<path d="M7.21881 17.713C7.22078 17.7798 7.02368 17.8398 6.77874 17.8469C6.53379 17.8539 6.33305 17.806 6.33107 17.7393C6.32909 17.6725 6.52615 17.6125 6.77129 17.6053C7.01643 17.598 7.21691 17.6464 7.21881 17.713Z" fill="#FCB831"/>
<path d="M7.22367 17.8801L7.22443 17.905L7.21484 17.9048C7.22059 17.8979 7.22371 17.8891 7.22367 17.8801" fill="#BB8535"/>
<path d="M6.07574 17.1919L6.08074 17.359C6.08078 17.3681 6.0776 17.377 6.07175 17.384C6.03177 17.4401 5.85421 17.4868 5.64025 17.4931C5.39495 17.5004 5.19432 17.452 5.1925 17.3854L5.1875 17.2183L5.20014 17.1895L6.07574 17.1919Z" fill="#BB8535"/>
<path d="M6.07529 17.1921C6.07727 17.2588 5.88017 17.3188 5.63503 17.3261C5.38989 17.3334 5.18953 17.2851 5.18752 17.2184C5.1855 17.1516 5.38267 17.0916 5.62778 17.0843C5.87288 17.0771 6.07339 17.1254 6.07529 17.1921Z" fill="#FCB831"/>
<path d="M6.08109 17.3591L6.08185 17.384L6.07227 17.3838C6.07801 17.3769 6.08114 17.3681 6.08109 17.3591" fill="#BB8535"/>
<path d="M14.3082 8.80966L14.3132 8.97671C14.3132 8.98583 14.31 8.99467 14.3042 9.00169C14.2642 9.05787 14.0866 9.10452 13.8727 9.11088C13.6274 9.11813 13.4267 9.06974 13.4249 9.00293L13.4199 8.83603L13.4326 8.80719L14.3082 8.80966Z" fill="#BB8535"/>
<path d="M14.3077 8.80971C14.3097 8.87645 14.1126 8.93644 13.8675 8.94353C13.6223 8.95063 13.422 8.9027 13.4199 8.83597C13.4179 8.76923 13.6151 8.7092 13.8602 8.70195C14.1053 8.6947 14.3058 8.74305 14.3077 8.80971Z" fill="#FCB831"/>
<path d="M14.3135 8.97681L14.3143 9.00172L14.3047 9.0015C14.3104 8.99455 14.3135 8.98581 14.3135 8.97681Z" fill="#BB8535"/>
<path d="M8.27105 17.8864L8.27605 18.0534C8.27609 18.0626 8.27291 18.0714 8.26706 18.0785C8.22708 18.1346 8.04953 18.1812 7.83556 18.1876C7.59026 18.1948 7.38964 18.1465 7.38781 18.0799L7.38281 17.9127L7.39545 17.8839L8.27105 17.8864Z" fill="#BB8535"/>
<path d="M8.2706 17.8866C8.27258 17.9533 8.07548 18.0133 7.83053 18.0206C7.58559 18.0279 7.38484 17.9796 7.38283 17.9128C7.38081 17.8461 7.57799 17.7861 7.82309 17.7789C8.06819 17.7716 8.2687 17.8199 8.2706 17.8866Z" fill="#FCB831"/>
<path d="M8.27445 18.0536L8.27521 18.0785L8.26562 18.0783C8.27137 18.0713 8.27449 18.0626 8.27445 18.0536" fill="#BB8535"/>
<path d="M6.71793 16.5295L6.72266 16.6887C6.72269 16.6974 6.71967 16.7058 6.71413 16.7125C6.67605 16.7658 6.50695 16.8102 6.30303 16.8163C6.0694 16.8232 5.87855 16.7771 5.87649 16.7137L5.87207 16.5546L5.88409 16.5271L6.71793 16.5295Z" fill="#BB8535"/>
<path d="M6.71837 16.5295C6.72027 16.5931 6.5326 16.6502 6.29917 16.6571C6.06574 16.6641 5.87484 16.6181 5.87306 16.5545C5.87128 16.4909 6.05891 16.4338 6.2923 16.4269C6.5257 16.42 6.7164 16.466 6.71837 16.5295Z" fill="#FCB831"/>
<path d="M6.72321 16.6887L6.72394 16.7125L6.71484 16.7122C6.7203 16.7056 6.72326 16.6973 6.72321 16.6887Z" fill="#BB8535"/>
<path d="M5.95758 17.9759L5.96258 18.143C5.96262 18.1521 5.95943 18.161 5.95358 18.168C5.9136 18.2241 5.73605 18.2708 5.52208 18.2771C5.27679 18.2844 5.07616 18.236 5.07434 18.1694L5.06934 18.0023L5.08198 17.9734L5.95758 17.9759Z" fill="#BB8535"/>
<path d="M5.95713 17.976C5.9591 18.0428 5.76201 18.1028 5.51706 18.11C5.27211 18.1173 5.07137 18.0691 5.06935 18.0023C5.06733 17.9355 5.26451 17.8755 5.50961 17.8683C5.75472 17.861 5.95523 17.9094 5.95713 17.976Z" fill="#FCB831"/>
<path d="M5.96195 18.143L5.96271 18.1679L5.95312 18.1677C5.95887 18.1608 5.96199 18.152 5.96195 18.143" fill="#BB8535"/>
</svg>
